<svg width="357" height="190" viewBox="0 0 357 190" fill="none" xmlns="http://www.w3.org/2000/svg">
<rect width="357" height="190" fill="#E7ECF0"/>
<rect y="42.4581" width="357" height="102.961" fill="white"/>
<path d="M112.48 98.2962H119.056C119.056 99.8002 118.768 101.224 118.192 102.568C117.616 103.88 116.832 105.032 115.84 106.024C114.848 107.016 113.68 107.8 112.336 108.376C111.024 108.952 109.616 109.24 108.112 109.24H105.904C104.4 109.24 102.976 108.952 101.632 108.376C100.32 107.8 99.1679 107.016 98.1759 106.024C97.1839 105.032 96.3999 103.88 95.8239 102.568C95.2799 101.224 95.0079 99.8002 95.0079 98.2962V87.3522C95.0079 85.8482 95.2799 84.4402 95.8239 83.1282C96.3999 81.7842 97.1839 80.6162 98.1759 79.6242C99.1679 78.6322 100.32 77.8482 101.632 77.2722C102.976 76.6962 104.4 76.4082 105.904 76.4082H108.112C109.616 76.4082 111.024 76.6962 112.336 77.2722C113.68 77.8482 114.848 78.6322 115.84 79.6242C116.832 80.6162 117.616 81.7842 118.192 83.1282C118.768 84.4402 119.056 85.8482 119.056 87.3522H112.48H111.28C111.024 87.3522 110.976 87.2402 111.136 87.0162C111.68 86.2802 111.648 85.3842 111.04 84.3282C110.912 84.1682 110.784 84.0242 110.656 83.8962C110.528 83.7362 110.368 83.6082 110.176 83.5122C109.568 83.1602 108.88 82.9842 108.112 82.9842H105.904C104.688 82.9842 103.648 83.4162 102.784 84.2802C101.952 85.1122 101.536 86.1362 101.536 87.3522V91.7202V93.8802V98.2962C101.536 99.5122 101.952 100.552 102.784 101.416C103.648 102.248 104.688 102.664 105.904 102.664H108.112C108.496 102.664 108.848 102.616 109.168 102.52C109.488 102.424 109.824 102.296 110.176 102.136C110.496 101.976 110.784 101.688 111.04 101.272C111.648 100.248 111.68 99.3682 111.136 98.6322C110.976 98.4082 111.024 98.2962 111.28 98.2962H112.48ZM134.186 76.7442C135.69 76.7442 137.098 77.0322 138.41 77.6082C139.754 78.1842 140.922 78.9682 141.914 79.9602C142.906 80.9522 143.69 82.1202 144.266 83.4642C144.842 84.7762 145.13 86.1842 145.13 87.6882V98.6322C145.13 100.136 144.842 101.56 144.266 102.904C143.69 104.216 142.906 105.368 141.914 106.36C140.922 107.352 139.754 108.136 138.41 108.712C137.098 109.256 135.69 109.528 134.186 109.528H132.026C130.522 109.528 129.098 109.256 127.754 108.712C126.442 108.136 125.29 107.352 124.298 106.36C123.306 105.368 122.522 104.216 121.946 102.904C121.37 101.56 121.082 100.136 121.082 98.6322V87.6882C121.082 86.1842 121.37 84.7762 121.946 83.4642C122.522 82.1202 123.306 80.9522 124.298 79.9602C125.29 78.9682 126.442 78.1842 127.754 77.6082C129.098 77.0322 130.522 76.7442 132.026 76.7442H134.186ZM134.186 103C135.402 103 136.426 102.584 137.258 101.752C138.122 100.888 138.554 99.8482 138.554 98.6322V94.2642V92.0562V87.6882C138.554 86.4722 138.122 85.4482 137.258 84.6162C136.426 83.7522 135.402 83.3202 134.186 83.3202H132.026C131.418 83.3202 130.842 83.4322 130.298 83.6562C129.786 83.8802 129.322 84.2002 128.906 84.6162C128.522 85.0002 128.218 85.4642 127.994 86.0082C127.77 86.5202 127.658 87.0802 127.658 87.6882V92.0562V94.2642V98.6322C127.658 99.2402 127.77 99.8162 127.994 100.36C128.218 100.872 128.522 101.336 128.906 101.752C129.322 102.136 129.786 102.44 130.298 102.664C130.842 102.888 131.418 103 132.026 103H134.186ZM176.605 104.872C176.605 106.888 176.973 108.216 177.709 108.856C177.965 109.112 177.917 109.24 177.565 109.24H169.117C168.989 109.24 168.909 109.208 168.877 109.144C168.845 109.048 168.877 108.952 168.973 108.856C169.709 108.216 170.077 106.888 170.077 104.872V96.3762L166.285 105.592C165.677 107.032 165.549 108.136 165.901 108.904C165.997 109.128 165.933 109.24 165.709 109.24H159.181C158.925 109.24 158.861 109.128 158.989 108.904C159.373 108.2 159.245 107.096 158.605 105.592L154.765 96.2802V103.576V103.624V104.872C154.765 106.92 155.133 108.248 155.869 108.856C155.965 108.952 155.997 109.048 155.965 109.144C155.933 109.208 155.853 109.24 155.725 109.24H147.277C147.149 109.24 147.069 109.208 147.037 109.144C147.005 109.048 147.037 108.952 147.133 108.856C147.837 108.248 148.189 106.92 148.189 104.872V80.8242C148.189 78.7762 147.837 77.4482 147.133 76.8402C147.037 76.7762 147.005 76.6962 147.037 76.6002C147.069 76.5042 147.149 76.4562 147.277 76.4562H152.605H155.725C155.853 76.4562 155.933 76.5042 155.965 76.6002C155.997 76.6962 155.965 76.7762 155.869 76.8402C155.453 77.1602 155.149 77.7202 154.957 78.5202C154.861 78.9682 154.909 79.4002 155.101 79.8162L162.397 97.6242L169.741 79.8162C169.933 79.3682 169.965 78.9362 169.837 78.5202C169.709 77.7522 169.421 77.1922 168.973 76.8402C168.877 76.7762 168.845 76.6962 168.877 76.6002C168.909 76.5042 168.989 76.4562 169.117 76.4562H174.445H177.565C177.725 76.4562 177.805 76.5042 177.805 76.6002C177.837 76.6962 177.805 76.7762 177.709 76.8402C176.973 77.4802 176.605 78.8082 176.605 80.8242V83.0322V85.1922V87.0162V93.9282V102.712V104.872ZM208.527 104.872C208.527 106.888 208.895 108.216 209.631 108.856C209.887 109.112 209.839 109.24 209.487 109.24H201.039C200.911 109.24 200.831 109.208 200.799 109.144C200.767 109.048 200.799 108.952 200.895 108.856C201.631 108.216 201.999 106.888 201.999 104.872V96.3762L198.207 105.592C197.599 107.032 197.471 108.136 197.823 108.904C197.919 109.128 197.855 109.24 197.631 109.24H191.103C190.847 109.24 190.783 109.128 190.911 108.904C191.295 108.2 191.167 107.096 190.527 105.592L186.687 96.2802V103.576V103.624V104.872C186.687 106.92 187.055 108.248 187.791 108.856C187.887 108.952 187.919 109.048 187.887 109.144C187.855 109.208 187.775 109.24 187.647 109.24H179.199C179.071 109.24 178.991 109.208 178.959 109.144C178.927 109.048 178.959 108.952 179.055 108.856C179.759 108.248 180.111 106.92 180.111 104.872V80.8242C180.111 78.7762 179.759 77.4482 179.055 76.8402C178.959 76.7762 178.927 76.6962 178.959 76.6002C178.991 76.5042 179.071 76.4562 179.199 76.4562H184.527H187.647C187.775 76.4562 187.855 76.5042 187.887 76.6002C187.919 76.6962 187.887 76.7762 187.791 76.8402C187.375 77.1602 187.071 77.7202 186.879 78.5202C186.783 78.9682 186.831 79.4002 187.023 79.8162L194.319 97.6242L201.663 79.8162C201.855 79.3682 201.887 78.9362 201.759 78.5202C201.631 77.7522 201.343 77.1922 200.895 76.8402C200.799 76.7762 200.767 76.6962 200.799 76.6002C200.831 76.5042 200.911 76.4562 201.039 76.4562H206.367H209.487C209.647 76.4562 209.727 76.5042 209.727 76.6002C209.759 76.6962 209.727 76.7762 209.631 76.8402C208.895 77.4802 208.527 78.8082 208.527 80.8242V83.0322V85.1922V87.0162V93.9282V102.712V104.872ZM224.561 76.7442C226.065 76.7442 227.473 77.0322 228.785 77.6082C230.129 78.1842 231.297 78.9682 232.289 79.9602C233.281 80.9522 234.065 82.1202 234.641 83.4642C235.217 84.7762 235.505 86.1842 235.505 87.6882V98.6322C235.505 100.136 235.217 101.56 234.641 102.904C234.065 104.216 233.281 105.368 232.289 106.36C231.297 107.352 230.129 108.136 228.785 108.712C227.473 109.256 226.065 109.528 224.561 109.528H222.401C220.897 109.528 219.473 109.256 218.129 108.712C216.817 108.136 215.665 107.352 214.673 106.36C213.681 105.368 212.897 104.216 212.321 102.904C211.745 101.56 211.457 100.136 211.457 98.6322V87.6882C211.457 86.1842 211.745 84.7762 212.321 83.4642C212.897 82.1202 213.681 80.9522 214.673 79.9602C215.665 78.9682 216.817 78.1842 218.129 77.6082C219.473 77.0322 220.897 76.7442 222.401 76.7442H224.561ZM224.561 103C225.777 103 226.801 102.584 227.633 101.752C228.497 100.888 228.929 99.8482 228.929 98.6322V94.2642V92.0562V87.6882C228.929 86.4722 228.497 85.4482 227.633 84.6162C226.801 83.7522 225.777 83.3202 224.561 83.3202H222.401C221.793 83.3202 221.217 83.4322 220.673 83.6562C220.161 83.8802 219.697 84.2002 219.281 84.6162C218.897 85.0002 218.593 85.4642 218.369 86.0082C218.145 86.5202 218.033 87.0802 218.033 87.6882V92.0562V94.2642V98.6322C218.033 99.2402 218.145 99.8162 218.369 100.36C218.593 100.872 218.897 101.336 219.281 101.752C219.697 102.136 220.161 102.44 220.673 102.664C221.217 102.888 221.793 103 222.401 103H224.561ZM260.5 104.872C260.5 106.888 260.868 108.216 261.604 108.856C261.7 108.92 261.732 109 261.7 109.096C261.668 109.192 261.588 109.24 261.46 109.24H253.012C252.884 109.24 252.804 109.192 252.772 109.096C252.74 109 252.772 108.92 252.868 108.856C253.444 108.376 253.78 107.448 253.876 106.072C253.94 105.496 253.908 104.984 253.78 104.536C253.684 104.056 253.46 103.592 253.108 103.144L245.188 92.1042V96.1362V98.2962V104.872C245.188 106.888 245.556 108.216 246.292 108.856C246.388 108.92 246.42 109 246.388 109.096C246.356 109.192 246.276 109.24 246.148 109.24H237.7C237.572 109.24 237.492 109.192 237.46 109.096C237.428 109 237.46 108.92 237.556 108.856C238.292 108.216 238.66 106.888 238.66 104.872V102.664V80.8242C238.66 78.7442 238.292 77.4162 237.556 76.8402C237.46 76.7442 237.428 76.6642 237.46 76.6002C237.492 76.5042 237.572 76.4562 237.7 76.4562H246.148C246.276 76.4562 246.356 76.5042 246.388 76.6002C246.42 76.6642 246.388 76.7442 246.292 76.8402C245.876 77.1602 245.572 77.7682 245.38 78.6642C245.252 79.3362 245.236 79.9442 245.332 80.4882C245.46 81.0002 245.716 81.5282 246.1 82.0722L253.972 93.0642V89.5602V85.1922V80.8242C253.972 78.7442 253.604 77.4162 252.868 76.8402C252.772 76.7442 252.74 76.6642 252.772 76.6002C252.804 76.5042 252.884 76.4562 253.012 76.4562H261.46C261.588 76.4562 261.668 76.5042 261.7 76.6002C261.732 76.6642 261.7 76.7442 261.604 76.8402C260.868 77.4162 260.5 78.7442 260.5 80.8242V104.872Z" fill="#A8B1B5"/>
</svg>
