<svg xmlns="http://www.w3.org/2000/svg" viewBox="0 0 295.24 421.23"><defs><style>.cls-1{fill:#7b9ab9;}.cls-2{fill:#ffbc36;}.cls-3{fill:#f4a800;}.cls-4{fill:#4f4858;}.cls-5{fill:#fff;}.cls-6{fill:#cedbe1;}.cls-7{fill:#beced3;}.cls-8{fill:#90b2bf;}.cls-9{fill:#7d9faa;}.cls-10{fill:#688d96;}.cls-11{fill:#b1ccdf;}.cls-12{fill:#abc5d2;}.cls-13{fill:#c0e1f0;}.cls-14{fill:#538cb7;}.cls-15{fill:#d00;}.cls-16{fill:red;}.cls-17{fill:#ff8f8f;}</style></defs><g id="Layer_2" data-name="Layer 2"><g id="Layer_1-2" data-name="Layer 1"><g id="Layer_2-2" data-name="Layer 2"><g id="Layer_1-2-2" data-name="Layer 1-2"><rect class="cls-1" x="270.76" y="246.9" width="15.83" height="24.1"/><path class="cls-2" d="M90.43,65.67a5.57,5.57,0,0,1-5.57,5.57H48.37a5.57,5.57,0,0,1-5.58-5.56h0a5.57,5.57,0,0,1,5.57-5.57h36.5A5.57,5.57,0,0,1,90.43,65.67Z"/><path class="cls-3" d="M42.79,65.67a5.57,5.57,0,0,0,5.57,5.57h36.5a5.57,5.57,0,0,0,5.57-5.57Z"/><path class="cls-4" d="M67.34,10.89a.71.71,0,0,1-.71.71h0a.71.71,0,0,1-.72-.7h0V.72A.72.72,0,0,1,66.63,0h0a.71.71,0,0,1,.71.71h0Z"/><path class="cls-4" d="M94.46,39.43a.73.73,0,0,1-.72-.71h0a.73.73,0,0,1,.72-.72h10.17a.72.72,0,0,1,.72.72h0a.71.71,0,0,1-.71.71H94.46Z"/><path class="cls-4" d="M28.62,39.43a.71.71,0,0,1-.71-.71h0a.73.73,0,0,1,.71-.72H38.8a.73.73,0,0,1,.71.72h0a.71.71,0,0,1-.71.71Z"/><path class="cls-4" d="M86.82,19.54a.72.72,0,0,1-1,0h0a.72.72,0,0,1,0-1L93,11.34a.72.72,0,0,1,1,0h0a.74.74,0,0,1,0,1Z"/><path class="cls-4" d="M39.25,12.35a.72.72,0,0,1,0-1h0a.72.72,0,0,1,1,0l7.19,7.19a.72.72,0,0,1,0,1h0a.72.72,0,0,1-1,0Z"/><path class="cls-5" d="M58.17,56.47H54.89V40.41c0-4.4,1.43-9.29,4.75-11.69a8.61,8.61,0,0,1,2.89-1.1c-2.61,2.82-4.36,7.81-4.36,12.79Z"/><rect class="cls-1" x="20.58" y="65.5" width="91.12" height="14.85"/><rect class="cls-6" x="46.13" y="65.5" width="40.02" height="14.85"/><rect class="cls-6" x="20.58" y="65.5" width="91.12" height="1.77"/><rect class="cls-6" x="20.58" y="78.58" width="91.12" height="1.77"/><rect class="cls-1" x="24.82" y="80.27" width="82.63" height="3.19"/><path class="cls-2" d="M236.18,65.67a5.57,5.57,0,0,1-5.57,5.57H194.12a5.57,5.57,0,0,1-5.57-5.57h0a5.57,5.57,0,0,1,5.57-5.57h36.49a5.57,5.57,0,0,1,5.57,5.57Z"/><path class="cls-3" d="M188.55,65.67a5.57,5.57,0,0,0,5.57,5.57h36.49a5.57,5.57,0,0,0,5.57-5.57H188.55Z"/><path class="cls-4" d="M213.1,10.89a.71.71,0,0,1-.71.71h0a.73.73,0,0,1-.72-.71V.72a.72.72,0,0,1,.72-.72h0a.72.72,0,0,1,.72.72h0Z"/><path class="cls-4" d="M240.22,39.43a.71.71,0,0,1-.72-.7h0a.72.72,0,0,1,.72-.72h10.17a.73.73,0,0,1,.71.72h0a.71.71,0,0,1-.71.71H240.22Z"/><path class="cls-4" d="M174.38,39.43a.71.71,0,0,1-.71-.71h0a.73.73,0,0,1,.71-.72h10.17a.73.73,0,0,1,.72.72h0a.73.73,0,0,1-.72.71Z"/><path class="cls-4" d="M232.57,19.54a.72.72,0,0,1-1,0h0a.72.72,0,0,1,0-1l7.19-7.19a.72.72,0,0,1,1,0h0a.72.72,0,0,1,0,1Z"/><path class="cls-4" d="M185,12.35a.72.72,0,0,1,0-1h0a.72.72,0,0,1,1,0l7.19,7.19a.72.72,0,0,1,0,1h0a.72.72,0,0,1-1,0Z"/><path class="cls-5" d="M203.93,56.47h-3.29V40.41c0-4.4,1.43-9.29,4.75-11.69a8.58,8.58,0,0,1,2.9-1.1c-2.62,2.82-4.36,7.81-4.36,12.79Z"/><rect class="cls-1" x="166.33" y="65.5" width="91.12" height="14.85"/><rect class="cls-6" x="191.88" y="65.5" width="40.02" height="14.85"/><rect class="cls-6" x="166.33" y="65.5" width="91.12" height="1.77"/><rect class="cls-6" x="166.33" y="78.58" width="91.12" height="1.77"/><rect class="cls-1" x="170.58" y="80.27" width="82.63" height="3.19"/><rect class="cls-6" x="101.7" y="351.71" width="73.01" height="8.18"/><rect class="cls-5" x="123.38" y="351.71" width="29.64" height="8.18"/><rect class="cls-6" x="12.22" y="284.97" width="251.97" height="136.26"/><rect class="cls-7" x="12.22" y="346.29" width="251.97" height="14.25"/><rect class="cls-8" x="23.34" y="284.97" width="229.72" height="124"/><rect class="cls-9" x="32.01" y="284.97" width="212.39" height="113.87"/><path class="cls-10" d="M207.09,389.92a7.21,7.21,0,0,1-7.21,7.21h-122a7.21,7.21,0,0,1-7.21-7.21h0a7.21,7.21,0,0,1,7.21-7.21h122A7.21,7.21,0,0,1,207.09,389.92Z"/><rect class="cls-10" x="101.7" y="343.53" width="73.01" height="16.36"/><rect class="cls-6" x="101.7" y="351.71" width="73.01" height="8.18"/><rect class="cls-5" x="123.38" y="351.71" width="29.64" height="8.18"/><rect class="cls-6" x="12.22" y="81.94" width="251.97" height="117.04"/><rect class="cls-7" x="12.22" y="135" width="251.97" height="14.25"/><rect class="cls-8" x="23.34" y="94.2" width="229.72" height="111.12"/><rect class="cls-9" x="32.01" y="130.09" width="212.39" height="68.89"/><path d="M276.4,350.59H0v-208H276.4ZM39,310.41H237.43V183.52H39Z"/><path class="cls-6" d="M276.4,350.59H0v-208H276.4ZM39,310.41H237.43V183.52H39Z"/><path class="cls-11" d="M39,183.52V310.41H237.43V183.52Zm189.45,119H48.18V191.84H228.42Z"/><polygon class="cls-12" points="237.43 183.52 237.43 310.41 259.78 332.76 259.78 160.42 237.43 183.52"/><polygon class="cls-12" points="38.97 310.41 38.97 183.52 16.62 160.42 16.62 332.76 38.97 310.41"/><polygon class="cls-8" points="16.62 160.42 38.97 183.52 237.43 183.52 259.78 160.42 16.62 160.42"/><polygon class="cls-13" points="237.43 310.41 38.97 310.41 16.62 332.76 259.78 332.76 237.43 310.41"/><path class="cls-14" d="M228.32,303H48.08a1.49,1.49,0,0,1-1.48-1.47V190.81a1.49,1.49,0,0,1,1.48-1.47H228.32a1.47,1.47,0,0,1,1.48,1.46h0v110.7a1.47,1.47,0,0,1-1.45,1.49ZM49.56,300H226.84V192.29H49.56Z"/><path class="cls-6" d="M228.32,302H48.08a.53.53,0,0,1-.53-.53V190.81a.53.53,0,0,1,.53-.53H228.32a.53.53,0,0,1,.53.53v110.7A.53.53,0,0,1,228.32,302ZM48.61,301H227.79V191.35H48.61Z"/><path class="cls-6" d="M68.27,389.94a14.37,14.37,0,0,0,14.36,14.38H195.08a14.38,14.38,0,0,0,14.38-14.38H68.27Z"/><path class="cls-5" d="M68.27,389.94c0,4,6.43,7.19,14.37,7.19H195.08c7.94,0,14.38-3.22,14.38-7.19Z"/><path class="cls-5" d="M44.69,155.36h-.83a3.82,3.82,0,0,1-.39-7.63h1.22a3.82,3.82,0,1,1,.39,7.63Z"/><path class="cls-5" d="M8.36,175a3.82,3.82,0,0,1-3.81-3.81V151.55a3.82,3.82,0,0,1,3.81-3.82h9.49a3.82,3.82,0,0,1,0,7.63H12.18V171.2A3.82,3.82,0,0,1,8.36,175Z"/><path class="cls-5" d="M32.36,155.36H28.9a3.82,3.82,0,0,1-.39-7.63h3.85a3.82,3.82,0,1,1,.39,7.63Z"/><path class="cls-5" d="M8.36,212.76A3.82,3.82,0,0,1,4.55,209V183.22a3.82,3.82,0,0,1,7.63-.39,2.54,2.54,0,0,1,0,.39V209A3.81,3.81,0,0,1,8.36,212.76Z"/><rect class="cls-6" x="277.94" y="242.51" width="17.3" height="32.87"/><rect class="cls-5" x="277.94" y="252.28" width="14.88" height="13.35"/><rect class="cls-6" x="282.02" y="165.6" width="9.16" height="79.44"/><path class="cls-5" d="M288.46,165.6h-3.72V245h0a1.86,1.86,0,1,0,3.72,0h0Z"/><path class="cls-15" d="M292.47,159.73a8.3,8.3,0,1,1-11.74,0,8.3,8.3,0,0,1,11.74,0Z"/><path class="cls-16" d="M288.45,159.73a5.46,5.46,0,1,1-7.72,0h0A5.46,5.46,0,0,1,288.45,159.73Z"/><path class="cls-17" d="M285.67,160.81a2.73,2.73,0,1,1-3.86,0h0A2.74,2.74,0,0,1,285.67,160.81Z"/><path class="cls-1" d="M47.68,191.84v110.7H227.92V191.84ZM210.78,285H65.08V208.33h145.7Z"/></g></g></g></g></svg>