<svg xmlns="http://www.w3.org/2000/svg" viewBox="0 0 295.25 421.23"><defs><style>.cls-1{fill:#7b9ab9;}.cls-2{fill:#ffbc36;}.cls-3{fill:#f4a800;}.cls-4{fill:#fd6220;}.cls-5{fill:#dd3900;}.cls-6{fill:#fff;}.cls-7{fill:#cedbe1;}.cls-8{fill:#fce466;}.cls-9{fill:#fed51b;}.cls-10{fill:#beced3;}.cls-11{fill:#90b2bf;}.cls-12{fill:#7d9faa;}.cls-13{fill:#688d96;}.cls-14{fill:#eb8944;}.cls-15{fill:#e9af41;}.cls-16{fill:#eccb98;}.cls-17{fill:#f99148;}.cls-18{fill:#f7ba45;}.cls-19{fill:#fad7a1;}.cls-20{fill:#b1ccdf;}.cls-21{fill:#abc5d2;}.cls-22{fill:#c0e1f0;}.cls-23{fill:#538cb7;}.cls-24{fill:#d00;}.cls-25{fill:red;}.cls-26{fill:#ff8f8f;}</style></defs><g id="Layer_2" data-name="Layer 2"><g id="Layer_1-2" data-name="Layer 1"><rect class="cls-1" x="270.76" y="246.9" width="15.83" height="24.1"/><path class="cls-2" d="M90.43,65.67a5.57,5.57,0,0,1-5.57,5.57H48.37a5.57,5.57,0,0,1-5.58-5.57h0a5.57,5.57,0,0,1,5.58-5.57H84.86a5.57,5.57,0,0,1,5.57,5.57Z"/><path class="cls-3" d="M42.79,65.67a5.57,5.57,0,0,0,5.58,5.57H84.86a5.57,5.57,0,0,0,5.57-5.57Z"/><path class="cls-4" d="M66.65,23.43c-10,0-18.8,7.93-18.8,17V60.1H85.44V40.41C85.44,31.36,76.66,23.43,66.65,23.43Z"/><path class="cls-4" d="M67.34,10.89a.71.71,0,0,1-.71.71h0a.71.71,0,0,1-.72-.71V.72A.72.72,0,0,1,66.63,0h0a.71.71,0,0,1,.71.72Z"/><path class="cls-4" d="M94.46,39.43a.72.72,0,0,1-.72-.71h0a.73.73,0,0,1,.72-.72h10.17a.72.72,0,0,1,.72.72h0a.71.71,0,0,1-.72.71Z"/><path class="cls-4" d="M28.62,39.43a.71.71,0,0,1-.71-.71h0a.72.72,0,0,1,.71-.72H38.8a.72.72,0,0,1,.71.72h0a.71.71,0,0,1-.71.71Z"/><path class="cls-4" d="M86.82,19.54a.72.72,0,0,1-1,0h0a.71.71,0,0,1,0-1L93,11.34a.72.72,0,0,1,1,0h0a.73.73,0,0,1,0,1Z"/><path class="cls-4" d="M39.25,12.35a.71.71,0,0,1,0-1h0a.71.71,0,0,1,1,0l7.19,7.19a.71.71,0,0,1,0,1h0a.71.71,0,0,1-1,0Z"/><path class="cls-5" d="M66.65,23.43v3.63c8.68,0,15.16,7,15.16,13.35V56.47H66.65V60.1H85.44V40.41C85.44,31.36,76.66,23.43,66.65,23.43Z"/><path class="cls-6" d="M58.17,56.47H54.89V40.41c0-4.4,1.43-9.29,4.75-11.69a8.47,8.47,0,0,1,2.89-1.1c-2.61,2.82-4.36,7.81-4.36,12.79Z"/><rect class="cls-1" x="20.58" y="65.5" width="91.12" height="14.85"/><rect class="cls-7" x="46.13" y="65.5" width="40.02" height="14.85"/><rect class="cls-7" x="20.58" y="65.5" width="91.12" height="1.77"/><rect class="cls-7" x="20.58" y="78.58" width="91.12" height="1.77"/><rect class="cls-1" x="24.82" y="80.27" width="82.63" height="3.19"/><path class="cls-2" d="M236.18,65.67a5.57,5.57,0,0,1-5.57,5.57H194.12a5.57,5.57,0,0,1-5.57-5.57h0a5.57,5.57,0,0,1,5.57-5.57h36.49a5.57,5.57,0,0,1,5.57,5.57Z"/><path class="cls-3" d="M188.55,65.67a5.57,5.57,0,0,0,5.57,5.57h36.49a5.57,5.57,0,0,0,5.57-5.57Z"/><path class="cls-8" d="M212.4,23.43c-10,0-18.8,7.93-18.8,17V60.1h37.6V40.41C231.2,31.36,222.41,23.43,212.4,23.43Z"/><path class="cls-9" d="M213.1,10.89a.71.71,0,0,1-.72.71h0a.72.72,0,0,1-.72-.71V.72a.72.72,0,0,1,.72-.72h0a.72.72,0,0,1,.72.72Z"/><path class="cls-9" d="M240.22,39.43a.71.71,0,0,1-.72-.71h0a.72.72,0,0,1,.72-.72h10.17a.72.72,0,0,1,.71.72h0a.71.71,0,0,1-.71.71Z"/><path class="cls-9" d="M174.38,39.43a.71.71,0,0,1-.71-.71h0a.72.72,0,0,1,.71-.72h10.17a.73.73,0,0,1,.72.72h0a.72.72,0,0,1-.72.71Z"/><path class="cls-9" d="M232.57,19.54a.71.71,0,0,1-1,0h0a.71.71,0,0,1,0-1l7.19-7.19a.71.71,0,0,1,1,0h0a.71.71,0,0,1,0,1Z"/><path class="cls-9" d="M185,12.35a.71.71,0,0,1,0-1h0a.71.71,0,0,1,1,0l7.19,7.19a.71.71,0,0,1,0,1h0a.71.71,0,0,1-1,0Z"/><path class="cls-9" d="M212.4,23.43v3.63c8.68,0,15.17,7,15.17,13.35V56.47H212.4V60.1h18.8V40.41C231.2,31.36,222.41,23.43,212.4,23.43Z"/><path class="cls-6" d="M203.93,56.47h-3.29V40.41c0-4.4,1.43-9.29,4.75-11.69a8.52,8.52,0,0,1,2.9-1.1c-2.62,2.82-4.36,7.81-4.36,12.79Z"/><rect class="cls-1" x="166.33" y="65.5" width="91.12" height="14.85"/><rect class="cls-7" x="191.88" y="65.5" width="40.02" height="14.85"/><rect class="cls-7" x="166.33" y="65.5" width="91.12" height="1.77"/><rect class="cls-7" x="166.33" y="78.58" width="91.12" height="1.77"/><rect class="cls-1" x="170.58" y="80.27" width="82.63" height="3.19"/><rect class="cls-7" x="101.7" y="351.71" width="73.01" height="8.18"/><rect class="cls-6" x="123.38" y="351.71" width="29.64" height="8.18"/><rect class="cls-7" x="12.22" y="284.97" width="251.97" height="136.26"/><rect class="cls-10" x="12.22" y="346.29" width="251.97" height="14.25"/><rect class="cls-11" x="23.34" y="284.97" width="229.72" height="124"/><rect class="cls-12" x="32.01" y="284.97" width="212.39" height="113.87"/><path class="cls-13" d="M207.09,389.92a7.21,7.21,0,0,1-7.21,7.21h-122a7.21,7.21,0,0,1-7.21-7.21h0a7.21,7.21,0,0,1,7.21-7.21h122a7.21,7.21,0,0,1,7.21,7.21Z"/><path class="cls-14" d="M154.15,378.53a13.21,13.21,0,1,1,13.21,13.21A13.21,13.21,0,0,1,154.15,378.53Z"/><path class="cls-15" d="M155.31,378.53a12,12,0,1,1,12.05,12A12.06,12.06,0,0,1,155.31,378.53Z"/><path class="cls-16" d="M164,370a3.66,3.66,0,1,1-5.18,0A3.66,3.66,0,0,1,164,370Z"/><path class="cls-16" d="M175.87,384.31a1.93,1.93,0,1,1-2.72,0A1.94,1.94,0,0,1,175.87,384.31Z"/><path class="cls-14" d="M166.41,379.4v5.05c-1.54-.3-2.68-1.28-2.68-2.45a.95.95,0,0,0-1.89,0c0,2.18,2,4,4.57,4.36v.24a.95.95,0,1,0,1.89,0v-.24a5.14,5.14,0,0,0,4.46-3.47,3.68,3.68,0,0,0,.11-.89c0-2.18-2-4-4.57-4.36v-5c1.54.3,2.68,1.28,2.68,2.45a.95.95,0,0,0,1.89,0c0-2.19-2-4-4.57-4.36v-.25a.95.95,0,0,0-1.89,0v.25c-2.59.36-4.57,2.17-4.57,4.35S163.82,379.05,166.41,379.4Zm4.55,2.86a3,3,0,0,1-2.66,2.19v-4.89c1.54.29,2.68,1.28,2.68,2.44A1.1,1.1,0,0,1,171,382.26Zm-7.23-7.21c0-1.17,1.14-2.16,2.68-2.45v4.89c-1.54-.29-2.67-1.28-2.68-2.44Zm3.62,4.42Z"/><path class="cls-14" d="M105,379.17a13.21,13.21,0,1,1,13.21,13.21A13.2,13.2,0,0,1,105,379.17Z"/><path class="cls-15" d="M106.13,379.17a12,12,0,1,1,12,12A12,12,0,0,1,106.13,379.17Z"/><path class="cls-16" d="M114.83,370.65a3.66,3.66,0,1,1-5.17,0A3.66,3.66,0,0,1,114.83,370.65Z"/><path class="cls-16" d="M126.68,385a1.92,1.92,0,1,1-2.72,0A1.93,1.93,0,0,1,126.68,385Z"/><path class="cls-14" d="M117.22,380.05v5c-1.54-.29-2.67-1.28-2.67-2.44a.95.95,0,0,0-1.9,0c0,2.18,2,4,4.57,4.35v.25a.95.95,0,0,0,1.89,0V387a5.14,5.14,0,0,0,4.46-3.46,3.35,3.35,0,0,0,.12-.89c0-2.19-2-4-4.58-4.36v-5c1.54.29,2.68,1.27,2.68,2.44a.95.95,0,1,0,1.9,0c0-2.18-2-4-4.58-4.36v-.24a.95.95,0,1,0-1.89,0v.24c-2.59.36-4.57,2.18-4.57,4.36S114.63,379.69,117.22,380.05Zm4.55,2.85a3,3,0,0,1-2.66,2.19V380.2c1.54.29,2.68,1.28,2.68,2.45A1.06,1.06,0,0,1,121.77,382.9Zm-7.22-7.21c0-1.17,1.13-2.15,2.67-2.44v4.88c-1.53-.29-2.67-1.27-2.67-2.43Zm3.62,4.42Z"/><path class="cls-14" d="M87.05,382.7a13.21,13.21,0,1,1,14.25,12.09A13.23,13.23,0,0,1,87.05,382.7Z"/><path class="cls-15" d="M88.22,382.61a12,12,0,1,1,13,11A12.05,12.05,0,0,1,88.22,382.61Z"/><path class="cls-16" d="M96.2,373.41a3.66,3.66,0,1,1-5.16.42A3.66,3.66,0,0,1,96.2,373.41Z"/><path class="cls-16" d="M109.18,386.69a1.93,1.93,0,1,1-2.71.23A1.93,1.93,0,0,1,109.18,386.69Z"/><path class="cls-14" d="M99.35,382.57l.41,5c-1.55-.17-2.77-1.05-2.86-2.21a.95.95,0,0,0-1.89.15c.18,2.17,2.3,3.82,4.91,4l0,.24a.94.94,0,0,0,1.88-.15l0-.25a5.14,5.14,0,0,0,4.17-3.82,4.39,4.39,0,0,0,0-.89c-.18-2.18-2.3-3.83-4.92-4l-.41-5c1.56.17,2.77,1.05,2.87,2.22a.94.94,0,0,0,1,.86,1,1,0,0,0,.87-1c-.18-2.17-2.3-3.82-4.92-4l0-.24a.94.94,0,0,0-1-.86,1,1,0,0,0-.86,1l0,.24c-2.55.57-4.38,2.54-4.2,4.71S96.74,382.43,99.35,382.57Zm4.77,2.48a3,3,0,0,1-2.47,2.4l-.4-4.87c1.56.16,2.77,1.05,2.87,2.21A1.13,1.13,0,0,1,104.12,385.05Zm-7.79-6.6c-.1-1.16,1-2.24,2.46-2.65l.41,4.86c-1.56-.16-2.77-1.05-2.87-2.2Zm4,4.12Z"/><path class="cls-17" d="M95.4,380.22A13.22,13.22,0,1,1,103.69,397,13.23,13.23,0,0,1,95.4,380.22Z"/><path class="cls-18" d="M96.51,380.6a12,12,0,1,1,7.55,15.26A12.05,12.05,0,0,1,96.51,380.6Z"/><path class="cls-19" d="M107.48,375.32a3.66,3.66,0,1,1-4.9-1.66A3.65,3.65,0,0,1,107.48,375.32Z"/><path class="cls-19" d="M114.13,392.66a1.93,1.93,0,1,1-2.58-.87A1.93,1.93,0,0,1,114.13,392.66Z"/><path class="cls-17" d="M106.74,385l-1.61,4.78c-1.37-.77-2.13-2.07-1.76-3.17a.94.94,0,0,0-.59-1.2,1,1,0,0,0-1.2.59c-.7,2.07.59,4.42,2.93,5.59l-.07.23a.95.95,0,1,0,1.79.61l.07-.24a5.13,5.13,0,0,0,5.34-1.85,3.36,3.36,0,0,0,.39-.81c.7-2.06-.59-4.42-2.94-5.59l1.62-4.78c1.36.78,2.13,2.07,1.76,3.18a1,1,0,0,0,.59,1.2,1,1,0,0,0,1.2-.6c.7-2.06-.59-4.42-2.94-5.59l.08-.23a.95.95,0,1,0-1.79-.61l-.08.23c-2.57-.49-5,.6-5.72,2.67S104.4,383.81,106.74,385Zm3.4,4.16a3,3,0,0,1-3.22,1.22l1.56-4.63c1.37.77,2.13,2.07,1.76,3.18A1.6,1.6,0,0,1,110.14,389.14ZM105.6,380c.38-1.11,1.76-1.68,3.32-1.46l-1.57,4.62c-1.36-.76-2.12-2.06-1.75-3.16Zm2,5.35Z"/><path class="cls-17" d="M123.29,377.69a13.22,13.22,0,1,1,13.22,13.22A13.23,13.23,0,0,1,123.29,377.69Z"/><path class="cls-18" d="M124.47,377.69a12,12,0,1,1,12,12A12,12,0,0,1,124.47,377.69Z"/><path class="cls-19" d="M133.17,369.18a3.66,3.66,0,1,1-5.18,0A3.65,3.65,0,0,1,133.17,369.18Z"/><path class="cls-19" d="M145,383.48a1.93,1.93,0,1,1-2.72,0A1.94,1.94,0,0,1,145,383.48Z"/><path class="cls-17" d="M135.56,378.57v5.05c-1.54-.3-2.67-1.28-2.67-2.45a1,1,0,0,0-1.9,0c0,2.18,2,4,4.57,4.36v.24a.95.95,0,1,0,1.89,0v-.24a5.13,5.13,0,0,0,4.46-3.47,3.68,3.68,0,0,0,.11-.89c0-2.18-2-4-4.57-4.36v-5c1.54.3,2.68,1.28,2.68,2.45a.95.95,0,0,0,1.89,0c0-2.18-2-4-4.57-4.36v-.25a.95.95,0,0,0-1.89,0v.25c-2.59.36-4.57,2.18-4.57,4.35S133,378.21,135.56,378.57Zm4.55,2.86a3,3,0,0,1-2.66,2.19v-4.89c1.54.29,2.68,1.27,2.68,2.44A1.1,1.1,0,0,1,140.11,381.43Zm-7.22-7.21c0-1.17,1.13-2.15,2.67-2.45v4.89c-1.53-.29-2.67-1.28-2.67-2.44Zm3.61,4.42Z"/><path class="cls-17" d="M117.38,392.83a13.21,13.21,0,1,1,16,9.68A13.21,13.21,0,0,1,117.38,392.83Z"/><path class="cls-18" d="M118.52,392.55a12,12,0,1,1,14.56,8.82A12,12,0,0,1,118.52,392.55Z"/><path class="cls-19" d="M124.94,382.21a3.66,3.66,0,1,1-5,1.23A3.65,3.65,0,0,1,124.94,382.21Z"/><path class="cls-19" d="M139.86,393.27a1.93,1.93,0,1,1-2.65.65A1.92,1.92,0,0,1,139.86,393.27Z"/><path class="cls-17" d="M129.5,390.76l1.2,4.89c-1.56.09-2.9-.6-3.18-1.73a.94.94,0,1,0-1.83.45c.52,2.12,2.87,3.41,5.47,3.14l.06.24a1,1,0,0,0,1.14.69.94.94,0,0,0,.69-1.14l-.05-.24a5.15,5.15,0,0,0,3.5-4.43,3.8,3.8,0,0,0-.1-.89c-.52-2.12-2.88-3.41-5.48-3.14l-1.21-4.9c1.57-.08,2.91.6,3.19,1.73a1,1,0,0,0,1.14.7,1,1,0,0,0,.7-1.15c-.52-2.12-2.88-3.41-5.48-3.14l-.06-.23a.95.95,0,1,0-1.84.45l.06.23c-2.43,1-3.92,3.21-3.4,5.32S126.9,391,129.5,390.76Zm5.1,1.68a3,3,0,0,1-2.06,2.76l-1.17-4.74c1.57-.09,2.91.59,3.19,1.73A1.09,1.09,0,0,1,134.6,392.44Zm-8.74-5.28c-.28-1.13.59-2.36,2-3L129,388.9c-1.56.08-2.89-.6-3.18-1.73Zm4.57,3.44Z"/><path class="cls-17" d="M138.64,375a13.22,13.22,0,1,1,3.88,18.28A13.21,13.21,0,0,1,138.64,375Z"/><path class="cls-18" d="M139.63,375.62a12,12,0,1,1,3.52,16.65A12,12,0,0,1,139.63,375.62Z"/><path class="cls-19" d="M151.56,373.23a3.65,3.65,0,1,1-4.33-2.82A3.65,3.65,0,0,1,151.56,373.23Z"/><path class="cls-19" d="M153.7,391.68a1.93,1.93,0,1,1-2.28-1.49A1.92,1.92,0,0,1,153.7,391.68Z"/><path class="cls-17" d="M148.45,382.4l-2.75,4.23c-1.13-1.09-1.55-2.53-.91-3.51a.95.95,0,0,0-1.59-1c-1.19,1.83-.52,4.43,1.45,6.14l-.13.21a1,1,0,0,0,.28,1.31.94.94,0,0,0,1.3-.28l.14-.2a5.15,5.15,0,0,0,5.63-.48,3.79,3.79,0,0,0,.58-.68c1.19-1.83.52-4.43-1.46-6.15l2.75-4.23c1.13,1.09,1.55,2.53.92,3.52a.93.93,0,0,0,.27,1.3,1,1,0,0,0,1.31-.27c1.19-1.83.52-4.43-1.46-6.15l.14-.2a.95.95,0,0,0-1.58-1l-.14.21c-2.37-1.11-5-.67-6.2,1.16S146.47,380.69,148.45,382.4Zm2.25,4.88a3,3,0,0,1-3.42.38l2.67-4.1c1.13,1.09,1.55,2.53.91,3.52A1.56,1.56,0,0,1,150.7,387.28Zm-2.12-10c.64-1,2.12-1.18,3.58-.59l-2.67,4.1c-1.13-1.08-1.54-2.53-.91-3.5Zm.62,5.69Z"/><path class="cls-17" d="M174,377a13.21,13.21,0,1,1,3.44,18.37A13.22,13.22,0,0,1,174,377Z"/><path class="cls-18" d="M175,377.65a12,12,0,1,1,3.13,16.73A12,12,0,0,1,175,377.65Z"/><path class="cls-19" d="M187,375.54a3.66,3.66,0,1,1-4.27-2.93A3.66,3.66,0,0,1,187,375.54Z"/><path class="cls-19" d="M188.67,394a1.93,1.93,0,1,1-2.25-1.54A1.93,1.93,0,0,1,188.67,394Z"/><path class="cls-17" d="M183.64,384.64l-2.85,4.16c-1.11-1.11-1.49-2.56-.83-3.53a.93.93,0,0,0-.25-1.31,1,1,0,0,0-1.31.24c-1.23,1.8-.63,4.42,1.31,6.18l-.14.2a.95.95,0,0,0,1.56,1.07l.14-.2a5.15,5.15,0,0,0,5.63-.34,3.47,3.47,0,0,0,.6-.67c1.23-1.8.63-4.42-1.31-6.18L189,380.1c1.11,1.11,1.49,2.56.83,3.53a.94.94,0,0,0,.24,1.31,1,1,0,0,0,1.32-.24c1.23-1.8.63-4.42-1.31-6.18l.14-.2A1,1,0,0,0,190,377a1,1,0,0,0-1.31.25l-.14.2c-2.34-1.17-5-.79-6.23,1S181.7,382.88,183.64,384.64Zm2.14,4.93a3,3,0,0,1-3.43.3l2.76-4c1.11,1.11,1.49,2.56.83,3.53A1.56,1.56,0,0,1,185.78,389.57Zm-1.89-10c.66-1,2.15-1.13,3.59-.5l-2.76,4c-1.1-1.11-1.49-2.56-.83-3.52Zm.49,5.7Z"/><path class="cls-17" d="M162.39,399.25a13.22,13.22,0,1,1,18.52,2.44A13.22,13.22,0,0,1,162.39,399.25Z"/><path class="cls-18" d="M163.32,398.54a12,12,0,1,1,16.88,2.22A12.05,12.05,0,0,1,163.32,398.54Z"/><path class="cls-19" d="M165,386.48a3.66,3.66,0,1,1-4.1,3.15A3.66,3.66,0,0,1,165,386.48Z"/><path class="cls-19" d="M183.15,390.62a1.92,1.92,0,1,1-2.16,1.65A1.91,1.91,0,0,1,183.15,390.62Z"/><path class="cls-17" d="M172.66,392.48l3.07,4c-1.4.71-2.9.62-3.61-.31a1,1,0,0,0-1.51,1.16c1.33,1.72,4,2,6.28.67l.15.19a.95.95,0,1,0,1.5-1.15l-.15-.19a5.15,5.15,0,0,0,1.43-5.47,4,4,0,0,0-.45-.77c-1.33-1.73-4-2-6.29-.68l-3.06-4c1.4-.7,2.9-.62,3.61.31a1,1,0,0,0,1.33.18,1,1,0,0,0,.17-1.33c-1.32-1.73-4-2-6.28-.67l-.15-.2a1,1,0,0,0-1.32-.18,1,1,0,0,0-.18,1.33l.15.2c-1.84,1.86-2.3,4.5-1,6.23S170.38,393.77,172.66,392.48ZM178,392a3,3,0,0,1-.78,3.35l-3-3.88c1.4-.7,2.9-.62,3.61.31A1.07,1.07,0,0,1,178,392Zm-10.13-1.33c-.71-.93-.41-2.4.64-3.56l3,3.87c-1.39.7-2.89.61-3.61-.3Zm5.57,1.31Z"/><path class="cls-17" d="M110.65,367.93a13.21,13.21,0,1,1,18.53,2.44A13.22,13.22,0,0,1,110.65,367.93Z"/><path class="cls-18" d="M111.58,367.22a12,12,0,1,1,16.88,2.22A12,12,0,0,1,111.58,367.22Z"/><path class="cls-19" d="M113.3,355.17a3.66,3.66,0,1,1-4.1,3.15A3.64,3.64,0,0,1,113.3,355.17Z"/><path class="cls-19" d="M131.41,359.3a1.93,1.93,0,1,1-2.16,1.66A1.92,1.92,0,0,1,131.41,359.3Z"/><path class="cls-17" d="M120.92,361.16l3.07,4c-1.4.71-2.9.62-3.61-.3a.93.93,0,0,0-1.32-.18.94.94,0,0,0-.18,1.33c1.33,1.73,4,2,6.27.67l.15.2a1,1,0,0,0,1.33.17.94.94,0,0,0,.17-1.32l-.15-.2a5.12,5.12,0,0,0,1.43-5.46,3.77,3.77,0,0,0-.45-.78c-1.33-1.73-4-2-6.28-.67l-3.07-4c1.4-.71,2.9-.62,3.61.3a1,1,0,0,0,1.33.18,1,1,0,0,0,.18-1.33c-1.33-1.73-4-2-6.29-.67l-.14-.2a1,1,0,0,0-1.33-.17.94.94,0,0,0-.17,1.32l.14.2c-1.83,1.86-2.29,4.5-1,6.23S118.65,362.46,120.92,361.16Zm5.35-.5a3,3,0,0,1-.78,3.35l-3-3.87c1.4-.71,2.91-.62,3.62.3A1.64,1.64,0,0,1,126.27,360.66Zm-10.13-1.32c-.71-.93-.4-2.4.64-3.57l3,3.87c-1.39.7-2.89.62-3.6-.3Zm5.57,1.3Z"/><path class="cls-17" d="M143.66,359.75a13.21,13.21,0,1,1,18.53,2.44A13.21,13.21,0,0,1,143.66,359.75Z"/><path class="cls-18" d="M144.59,359a12,12,0,1,1,16.88,2.22A12,12,0,0,1,144.59,359Z"/><path class="cls-19" d="M146.31,347a3.66,3.66,0,1,1-4.1,3.15A3.65,3.65,0,0,1,146.31,347Z"/><path class="cls-19" d="M164.42,351.12a1.93,1.93,0,1,1-2.16,1.66A1.92,1.92,0,0,1,164.42,351.12Z"/><path class="cls-17" d="M153.93,353l3.07,4c-1.4.71-2.9.62-3.61-.3a.94.94,0,0,0-1.33-.18,1,1,0,0,0-.18,1.33c1.33,1.73,4,2,6.28.67l.15.2a.95.95,0,0,0,1.5-1.16l-.15-.19a5.13,5.13,0,0,0,1.43-5.47,4,4,0,0,0-.45-.77c-1.33-1.73-4-2-6.29-.67l-3.06-4c1.4-.71,2.9-.62,3.61.3a.95.95,0,1,0,1.5-1.15c-1.33-1.73-4-2-6.28-.67l-.15-.2a.94.94,0,0,0-1.32-.17,1,1,0,0,0-.18,1.32l.15.2c-1.83,1.86-2.3,4.5-1,6.23S151.65,354.28,153.93,353Zm5.34-.5a3,3,0,0,1-.77,3.35l-3-3.87c1.4-.71,2.9-.62,3.62.3A1,1,0,0,1,159.27,352.48Zm-10.12-1.32c-.71-.94-.41-2.4.64-3.57l3,3.87c-1.39.71-2.89.62-3.6-.3Zm5.57,1.3Z"/><path class="cls-17" d="M78.7,391.16a13.21,13.21,0,1,1,16.88,8A13.23,13.23,0,0,1,78.7,391.16Z"/><path class="cls-18" d="M79.81,390.76a12,12,0,1,1,15.38,7.3A12,12,0,0,1,79.81,390.76Z"/><path class="cls-19" d="M85.14,379.82a3.66,3.66,0,1,1-4.87,1.74A3.66,3.66,0,0,1,85.14,379.82Z"/><path class="cls-19" d="M101.11,389.31a1.93,1.93,0,1,1-2.57.92A1.93,1.93,0,0,1,101.11,389.31Z"/><path class="cls-17" d="M90.55,387.86l1.69,4.75c-1.55.25-2.95-.3-3.34-1.4a.93.93,0,0,0-1.2-.57,1,1,0,0,0-.58,1.21c.73,2,3.21,3.1,5.77,2.57l.08.23a.95.95,0,0,0,1.78-.64l-.08-.23a5.12,5.12,0,0,0,3-4.76,3.84,3.84,0,0,0-.19-.88c-.73-2.05-3.21-3.1-5.77-2.57L90,380.82c1.55-.24,3,.3,3.35,1.41a1,1,0,0,0,1.21.57,1,1,0,0,0,.57-1.21c-.73-2.06-3.2-3.1-5.77-2.57l-.08-.23a.95.95,0,0,0-1.78.64l.08.23c-2.32,1.2-3.57,3.58-2.84,5.63S88,388.4,90.55,387.86ZM95.79,389A3,3,0,0,1,94,392l-1.64-4.6c1.55-.25,3,.3,3.35,1.4A1,1,0,0,1,95.79,389Zm-9.23-4.37c-.39-1.1.35-2.41,1.71-3.2l1.64,4.6c-1.55.24-3-.3-3.34-1.39Zm4.9,2.95Z"/><rect class="cls-13" x="101.7" y="343.53" width="73.01" height="16.36"/><rect class="cls-7" x="101.7" y="351.71" width="73.01" height="8.18"/><rect class="cls-6" x="123.38" y="351.71" width="29.64" height="8.18"/><rect class="cls-7" x="12.22" y="81.94" width="251.97" height="117.04"/><rect class="cls-10" x="12.22" y="135" width="251.97" height="14.25"/><rect class="cls-11" x="23.34" y="94.2" width="229.72" height="111.12"/><rect class="cls-12" x="32.01" y="130.09" width="212.39" height="68.89"/><polygon class="cls-8" points="63.53 99.89 63.53 106.5 59.56 106.5 59.57 132.34 55.46 136.52 40 136.52 35.89 132.34 35.89 126.07 41.95 126.07 41.95 130.3 53.51 130.3 53.5 106.5 49.52 106.5 49.52 99.89 63.53 99.89"/><polygon class="cls-8" points="149.82 99.89 137.5 118.61 149.83 136.52 142.69 136.52 134.01 125.36 134.02 136.52 128.09 136.52 128.08 99.89 134 99.89 134.01 111.87 142.67 99.89 149.82 99.89"/><path class="cls-8" d="M175.51,99.93l4.29,4.37v15l-3.94,4H161.57v13.21h-6.39l0-36.59Zm-2.1,16.86V106.5H161.57v10.29Z"/><path class="cls-8" d="M205.59,99.93l4.14,4.21v28.22l-4.13,4.16H190.08L186,132.36V104.14l4.12-4.21Zm-1.94,30.37,0-23.8H192v23.8Z"/><polygon class="cls-8" points="240.51 99.94 240.51 106.5 231.39 106.5 231.41 136.52 225.01 136.52 225 106.5 215.88 106.5 215.88 99.94 240.51 99.94"/><path class="cls-8" d="M88,99.89l4.21,4.3v32.33H85.94V122.86H74.21v13.66H68l0-32.33,4.21-4.3Zm-2,16.6v-10H74.2v10Z"/><polygon class="cls-8" points="118.31 99.89 122.53 104.19 122.53 110.63 116.28 110.63 116.28 106.5 104.56 106.5 104.57 130.3 116.29 130.3 116.29 125.79 122.54 125.79 122.54 132.23 118.33 136.52 102.53 136.52 98.32 132.23 98.31 104.19 102.52 99.89 118.31 99.89"/><path class="cls-9" d="M56.1,138.05H39.36l-5-5.09v-8.42h9.11v4.23H52V108H48V98.36H65.06V108h-4l0,24.93ZM40.64,135H54.82L58,131.71V105h4v-3.56H51V105h4l0,26.84H40.43v-4.23h-3v4.12Z"/><path class="cls-9" d="M152.74,138.05h-10.8l-6.4-8.23v8.23h-9l0-39.69h9v8.79l6.36-8.79h10.76l-13.31,20.23ZM143.43,135h3.5l-11.28-16.37L147,101.42h-3.53l-11,15.16V101.42H129.6l0,33.58h2.87V120.9Z"/><path class="cls-9" d="M163.11,138.05h-9.45l0-39.64h22.51l5.17,5.27v16.24l-4.82,4.92H163.1Zm-6.4-3.05h3.34V121.79h15.17l3.06-3.12V104.93l-3.4-3.47H156.69Zm18.23-16.69H160V105h14.9Zm-11.84-3h8.79V108h-8.79Z"/><path class="cls-9" d="M206.25,138.05H189.44l-5-5.06,0-29.47,5-5.11h16.81l5,5.11V133ZM190.72,135H205l3.25-3.27,0-27L205,101.46H190.7l-3.23,3.31v27Zm14.45-3.18H190.52V105h14.65Zm-11.6-3h8.55V108h-8.55Z"/><path class="cls-9" d="M232.94,138.05h-9.45l0-30h-9.11V98.41H242V108h-9.12Zm-6.4-3.05h3.34V105H239v-3.51H217.41V105h9.11Z"/><path class="cls-9" d="M93.71,138.05h-9.3V124.38H75.73v13.67h-9.3V103.57l5.09-5.21H88.6l5.09,5.21ZM87.46,135h3.2l0-30.19-3.33-3.39H72.8l-3.32,3.39V135h3.2V121.33H87.46Zm0-17H72.68V105H87.45ZM75.73,115H84.4V108H75.73Z"/><path class="cls-9" d="M119,138.05H101.89l-5.09-5.19,0-29.29,5.09-5.21H119l5.09,5.21v8.58h-9.3V108h-8.67l0,20.74h8.66v-4.51h9.3v8.59ZM103.18,135h14.51l3.32-3.39v-4.29h-3.19v4.5H103V105h14.78v4.12H121v-4.29l-3.33-3.39H103.16l-3.32,3.39v26.8Z"/><path d="M276.4,350.59H0v-208H276.4ZM39,310.41H237.43V183.52H39Z"/><path class="cls-7" d="M276.4,350.59H0v-208H276.4ZM39,310.41H237.43V183.52H39Z"/><path class="cls-20" d="M39,183.52V310.41H237.43V183.52Zm189.45,119H48.18V191.84H228.42Z"/><polygon class="cls-21" points="237.43 183.52 237.43 310.41 259.78 332.76 259.78 160.42 237.43 183.52"/><polygon class="cls-21" points="38.97 310.41 38.97 183.52 16.62 160.42 16.62 332.76 38.97 310.41"/><polygon class="cls-11" points="16.62 160.42 38.97 183.52 237.43 183.52 259.78 160.42 16.62 160.42"/><polygon class="cls-22" points="237.43 310.41 38.97 310.41 16.62 332.76 259.78 332.76 237.43 310.41"/><path class="cls-23" d="M228.32,303H48.08a1.48,1.48,0,0,1-1.48-1.47V190.81a1.48,1.48,0,0,1,1.48-1.47H228.32a1.47,1.47,0,0,1,1.48,1.47v110.7A1.47,1.47,0,0,1,228.32,303ZM49.56,300H226.84V192.29H49.56Z"/><path class="cls-7" d="M228.32,302H48.08a.53.53,0,0,1-.53-.53V190.81a.53.53,0,0,1,.53-.53H228.32a.53.53,0,0,1,.53.53v110.7A.53.53,0,0,1,228.32,302ZM48.61,301H227.79V191.35H48.61Z"/><path class="cls-7" d="M68.27,389.94a14.37,14.37,0,0,0,14.37,14.38H195.08a14.38,14.38,0,0,0,14.38-14.38Z"/><path class="cls-6" d="M68.27,389.94c0,4,6.43,7.19,14.37,7.19H195.08c7.94,0,14.38-3.22,14.38-7.19Z"/><path class="cls-6" d="M44.69,155.36h-.83a3.82,3.82,0,1,1,0-7.63h.83a3.82,3.82,0,1,1,0,7.63Z"/><path class="cls-6" d="M8.36,175a3.81,3.81,0,0,1-3.81-3.81V151.55a3.82,3.82,0,0,1,3.81-3.82h9.49a3.82,3.82,0,0,1,0,7.63H12.18V171.2A3.81,3.81,0,0,1,8.36,175Z"/><path class="cls-6" d="M32.36,155.36H28.9a3.82,3.82,0,1,1,0-7.63h3.46a3.82,3.82,0,1,1,0,7.63Z"/><path class="cls-6" d="M8.36,212.76A3.81,3.81,0,0,1,4.55,209V183.22a3.82,3.82,0,1,1,7.63,0V209A3.81,3.81,0,0,1,8.36,212.76Z"/><rect class="cls-7" x="277.94" y="242.51" width="17.3" height="32.87"/><rect class="cls-6" x="277.94" y="252.28" width="14.88" height="13.35"/><rect class="cls-7" x="282.02" y="165.6" width="9.16" height="79.44"/><path class="cls-6" d="M288.46,165.6h-3.72V245h0a1.86,1.86,0,1,0,3.72,0h0Z"/><path class="cls-24" d="M292.47,159.73a8.3,8.3,0,1,1-11.74,0A8.3,8.3,0,0,1,292.47,159.73Z"/><path class="cls-25" d="M288.45,159.73a5.46,5.46,0,1,1-7.72,0A5.46,5.46,0,0,1,288.45,159.73Z"/><path class="cls-26" d="M285.67,160.81a2.73,2.73,0,1,1-3.86,0A2.74,2.74,0,0,1,285.67,160.81Z"/><path class="cls-1" d="M47.68,191.84v110.7H227.92V191.84ZM210.78,285H65.08V208.33h145.7Z"/></g></g></svg>