<svg width="357" height="190" viewBox="0 0 357 190" fill="none" xmlns="http://www.w3.org/2000/svg">
<rect width="357" height="190" fill="#E7ECF0"/>
<rect y="42.4581" width="357" height="102.961" fill="white"/>
<path d="M151.863 108.856C151.959 108.92 151.991 109 151.959 109.096C151.927 109.192 151.847 109.24 151.719 109.24H143.271C143.143 109.24 143.063 109.192 143.031 109.096C142.999 109 143.031 108.92 143.127 108.856C143.863 108.248 144.231 106.92 144.231 104.872V102.664V101.56C144.231 100.664 144.055 99.8162 143.703 99.0162C143.383 98.2162 142.919 97.5282 142.311 96.9522C141.703 96.3442 140.999 95.8802 140.199 95.5602C139.399 95.2082 138.551 95.0322 137.655 95.0322H136.599V98.2962V102.664V104.872C136.599 106.92 136.951 108.248 137.655 108.856C137.751 108.92 137.783 109 137.751 109.096C137.751 109.192 137.671 109.24 137.511 109.24H136.599H134.391H129.063C128.935 109.24 128.855 109.192 128.823 109.096C128.791 109 128.839 108.92 128.967 108.856C129.671 108.216 130.023 106.888 130.023 104.872V80.8242C130.023 78.7762 129.671 77.4482 128.967 76.8402C128.839 76.7442 128.791 76.6482 128.823 76.5522C128.855 76.4562 128.935 76.4082 129.063 76.4082H134.391H141.447C142.727 76.4082 143.927 76.6642 145.047 77.1762C146.199 77.6562 147.191 78.3282 148.023 79.1922C148.887 80.0242 149.559 81.0162 150.039 82.1682C150.551 83.2882 150.807 84.4882 150.807 85.7682C150.807 87.1442 150.519 88.4562 149.943 89.7042C149.367 90.9522 148.551 92.0082 147.495 92.8722C148.647 94.2162 149.479 95.5762 149.991 96.9522C150.535 98.2962 150.807 99.8322 150.807 101.56V102.664V104.872C150.807 106.92 151.159 108.248 151.863 108.856ZM133.239 107.176C133.655 107.176 133.863 106.984 133.863 106.6C133.863 106.184 133.655 105.976 133.239 105.976C132.855 105.976 132.663 106.184 132.663 106.6C132.663 106.984 132.855 107.176 133.239 107.176ZM133.239 102.616C133.655 102.616 133.863 102.408 133.863 101.992C133.863 101.832 133.799 101.704 133.671 101.608C133.543 101.48 133.399 101.416 133.239 101.416C133.079 101.416 132.935 101.48 132.807 101.608C132.711 101.704 132.663 101.832 132.663 101.992C132.663 102.408 132.855 102.616 133.239 102.616ZM133.239 98.2482C133.655 98.2482 133.863 98.0402 133.863 97.6242C133.863 97.4642 133.799 97.3362 133.671 97.2402C133.543 97.1122 133.399 97.0482 133.239 97.0482C133.079 97.0482 132.935 97.1122 132.807 97.2402C132.711 97.3362 132.663 97.4642 132.663 97.6242C132.663 98.0402 132.855 98.2482 133.239 98.2482ZM133.239 93.7842C133.655 93.7842 133.863 93.5762 133.863 93.1602C133.863 93.0002 133.799 92.8722 133.671 92.7762C133.543 92.6482 133.399 92.5842 133.239 92.5842C133.079 92.5842 132.935 92.6482 132.807 92.7762C132.711 92.8722 132.663 93.0002 132.663 93.1602C132.663 93.5762 132.855 93.7842 133.239 93.7842ZM133.287 89.2722C133.671 89.2722 133.863 89.0802 133.863 88.6962C133.863 88.3122 133.671 88.1202 133.287 88.1202C132.903 88.1202 132.711 88.3122 132.711 88.6962C132.711 89.0802 132.903 89.2722 133.287 89.2722ZM132.663 84.2802C132.663 84.6642 132.855 84.8562 133.239 84.8562C133.655 84.8562 133.863 84.6642 133.863 84.2802C133.863 83.8962 133.655 83.7042 133.239 83.7042C132.855 83.7042 132.663 83.8962 132.663 84.2802ZM133.287 80.4402C133.671 80.4402 133.863 80.2322 133.863 79.8162C133.863 79.4322 133.671 79.2402 133.287 79.2402C132.903 79.2402 132.711 79.4322 132.711 79.8162C132.711 80.2322 132.903 80.4402 133.287 80.4402ZM147.495 85.6722C147.335 85.6722 147.191 85.7362 147.063 85.8642C146.935 85.9602 146.871 86.0882 146.871 86.2482C146.871 86.6642 147.079 86.8722 147.495 86.8722C147.879 86.8722 148.071 86.6642 148.071 86.2482C148.071 86.0882 148.007 85.9602 147.879 85.8642C147.783 85.7362 147.655 85.6722 147.495 85.6722ZM146.391 81.6882C146.007 81.6882 145.815 81.8802 145.815 82.2642C145.815 82.6482 146.007 82.8402 146.391 82.8402C146.807 82.8402 147.015 82.6482 147.015 82.2642C147.015 81.8802 146.807 81.6882 146.391 81.6882ZM142.311 79.2402C141.927 79.2402 141.735 79.4482 141.735 79.8642C141.735 80.0242 141.783 80.1682 141.879 80.2962C142.007 80.3922 142.151 80.4402 142.311 80.4402C142.471 80.4402 142.615 80.3922 142.743 80.2962C142.871 80.1682 142.935 80.0242 142.935 79.8642C142.935 79.4482 142.727 79.2402 142.311 79.2402ZM137.559 79.2402C137.399 79.2402 137.255 79.3042 137.127 79.4322C137.031 79.5602 136.983 79.7042 136.983 79.8642C136.983 80.0242 137.031 80.1682 137.127 80.2962C137.255 80.3922 137.399 80.4402 137.559 80.4402C137.719 80.4402 137.863 80.3922 137.991 80.2962C138.119 80.1682 138.183 80.0242 138.183 79.8642C138.183 79.4482 137.975 79.2402 137.559 79.2402ZM137.175 92.1522C137.335 92.1522 137.463 92.0882 137.559 91.9602C137.687 91.8322 137.751 91.6882 137.751 91.5282C137.751 91.3682 137.687 91.2402 137.559 91.1442C137.463 91.0162 137.335 90.9522 137.175 90.9522C137.015 90.9522 136.871 91.0162 136.743 91.1442C136.615 91.2402 136.551 91.3682 136.551 91.5282C136.551 91.9442 136.759 92.1522 137.175 92.1522ZM141.591 92.2482C142.007 92.2482 142.215 92.0562 142.215 91.6722C142.215 91.2562 142.007 91.0482 141.591 91.0482C141.207 91.0482 141.015 91.2562 141.015 91.6722C141.015 92.0562 141.207 92.2482 141.591 92.2482ZM141.447 88.5522C142.215 88.5522 142.871 88.2962 143.415 87.7842C143.959 87.2402 144.231 86.5682 144.231 85.7682C144.231 85.0002 143.959 84.3442 143.415 83.8002C142.871 83.2562 142.215 82.9842 141.447 82.9842H136.599V83.0322V83.3682V88.5042V88.5522H141.447ZM144.567 95.3202C144.983 95.3202 145.191 95.1282 145.191 94.7442C145.191 94.3282 144.983 94.1202 144.567 94.1202C144.183 94.1202 143.991 94.3282 143.991 94.7442C143.991 95.1282 144.183 95.3202 144.567 95.3202ZM145.287 90.8082C145.287 91.1922 145.495 91.3842 145.911 91.3842C146.071 91.3842 146.199 91.3362 146.295 91.2402C146.423 91.1122 146.487 90.9682 146.487 90.8082C146.487 90.6482 146.423 90.5042 146.295 90.3762C146.199 90.2482 146.071 90.1842 145.911 90.1842C145.495 90.1842 145.287 90.3922 145.287 90.8082ZM146.295 98.2002C146.295 98.5842 146.503 98.7762 146.919 98.7762C147.303 98.7762 147.495 98.5842 147.495 98.2002C147.495 97.7842 147.303 97.5762 146.919 97.5762C146.503 97.5762 146.295 97.7842 146.295 98.2002ZM147.543 101.752C147.383 101.752 147.239 101.816 147.111 101.944C147.015 102.04 146.967 102.168 146.967 102.328C146.967 102.488 147.015 102.632 147.111 102.76C147.239 102.856 147.383 102.904 147.543 102.904C147.959 102.904 148.167 102.712 148.167 102.328C148.167 101.944 147.959 101.752 147.543 101.752ZM147.687 107.176C148.103 107.176 148.311 106.984 148.311 106.6C148.311 106.184 148.103 105.976 147.687 105.976C147.527 105.976 147.383 106.04 147.255 106.168C147.159 106.296 147.111 106.44 147.111 106.6C147.111 106.76 147.159 106.904 147.255 107.032C147.383 107.128 147.527 107.176 147.687 107.176ZM177.3 108.856C177.396 108.952 177.428 109.048 177.396 109.144C177.364 109.208 177.284 109.24 177.156 109.24H168.708C168.58 109.24 168.5 109.208 168.468 109.144C168.436 109.048 168.468 108.952 168.564 108.856C169.3 108.28 169.668 106.952 169.668 104.872V100.504H160.884V104.872C160.884 106.952 161.252 108.28 161.988 108.856C162.244 109.112 162.196 109.24 161.844 109.24H153.396C153.268 109.24 153.188 109.208 153.156 109.144C153.124 109.048 153.156 108.952 153.252 108.856C153.988 108.28 154.356 106.952 154.356 104.872V98.3442V94.4562C154.356 93.0802 154.484 91.7682 154.74 90.5202C154.996 89.2402 155.396 87.9602 155.94 86.6802L158.436 80.8722C158.852 78.8242 158.756 77.4802 158.148 76.8402C158.052 76.7442 158.02 76.6642 158.052 76.6002C158.084 76.5042 158.164 76.4562 158.292 76.4562H172.26C172.58 76.4562 172.644 76.5842 172.452 76.8402C171.844 77.4162 171.732 78.7602 172.116 80.8722L174.612 86.6802C175.156 87.9602 175.556 89.2402 175.812 90.5202C176.068 91.7682 176.196 93.0802 176.196 94.4562V98.3442V104.872C176.196 106.952 176.564 108.28 177.3 108.856ZM172.356 91.6242C171.972 91.6242 171.78 91.8322 171.78 92.2482C171.78 92.4082 171.828 92.5522 171.924 92.6802C172.052 92.7762 172.196 92.8242 172.356 92.8242C172.516 92.8242 172.66 92.7762 172.788 92.6802C172.916 92.5522 172.98 92.4082 172.98 92.2482C172.98 91.8322 172.772 91.6242 172.356 91.6242ZM168.324 78.5682C167.94 78.5682 167.748 78.7602 167.748 79.1442C167.748 79.5602 167.94 79.7682 168.324 79.7682C168.708 79.7682 168.9 79.5602 168.9 79.1442C168.9 78.7602 168.708 78.5682 168.324 78.5682ZM162.228 79.0002C161.812 79.0002 161.604 79.1922 161.604 79.5762C161.604 79.9922 161.812 80.2002 162.228 80.2002C162.644 80.2002 162.852 79.9922 162.852 79.5762C162.852 79.1922 162.644 79.0002 162.228 79.0002ZM157.62 106.648C158.036 106.648 158.244 106.44 158.244 106.024C158.244 105.864 158.18 105.736 158.052 105.64C157.924 105.512 157.78 105.448 157.62 105.448C157.46 105.448 157.316 105.512 157.188 105.64C157.06 105.736 156.996 105.864 156.996 106.024C156.996 106.44 157.204 106.648 157.62 106.648ZM157.764 102.088C158.18 102.088 158.388 101.88 158.388 101.464C158.388 101.304 158.324 101.176 158.196 101.08C158.1 100.952 157.956 100.888 157.764 100.888C157.604 100.888 157.46 100.952 157.332 101.08C157.236 101.176 157.188 101.304 157.188 101.464C157.188 101.88 157.38 102.088 157.764 102.088ZM157.764 97.5282C158.18 97.5282 158.388 97.3362 158.388 96.9522C158.388 96.5362 158.18 96.3282 157.764 96.3282C157.38 96.3282 157.188 96.5362 157.188 96.9522C157.188 97.3362 157.38 97.5282 157.764 97.5282ZM158.052 93.1122C158.212 93.1122 158.356 93.0642 158.484 92.9682C158.612 92.8402 158.676 92.6962 158.676 92.5362C158.676 92.1202 158.468 91.9122 158.052 91.9122C157.668 91.9122 157.476 92.1202 157.476 92.5362C157.476 92.6962 157.524 92.8402 157.62 92.9682C157.748 93.0642 157.892 93.1122 158.052 93.1122ZM158.676 88.7442C159.06 88.7442 159.252 88.5522 159.252 88.1682C159.252 87.7842 159.06 87.5922 158.676 87.5922C158.26 87.5922 158.052 87.7842 158.052 88.1682C158.052 88.5522 158.26 88.7442 158.676 88.7442ZM160.644 84.3282C161.028 84.3282 161.22 84.1362 161.22 83.7522C161.22 83.3362 161.028 83.1282 160.644 83.1282C160.228 83.1282 160.02 83.3362 160.02 83.7522C160.02 84.1362 160.228 84.3282 160.644 84.3282ZM162.66 97.5282C163.076 97.5282 163.284 97.3362 163.284 96.9522C163.284 96.5362 163.076 96.3282 162.66 96.3282C162.244 96.3282 162.036 96.5362 162.036 96.9522C162.036 97.3362 162.244 97.5282 162.66 97.5282ZM167.604 97.5762C167.764 97.5762 167.892 97.5282 167.988 97.4322C168.116 97.3042 168.18 97.1602 168.18 97.0002C168.18 96.5842 167.988 96.3762 167.604 96.3762C167.188 96.3762 166.98 96.5842 166.98 97.0002C166.98 97.1602 167.028 97.3042 167.124 97.4322C167.252 97.5282 167.412 97.5762 167.604 97.5762ZM169.668 93.9762C169.572 92.3442 169.22 90.7762 168.612 89.2722L165.3 81.5442L161.988 89.2722C161.316 90.7762 160.964 92.3442 160.932 93.9762H169.668ZM169.764 83.9442C170.148 83.9442 170.34 83.7362 170.34 83.3202C170.34 82.9042 170.148 82.6962 169.764 82.6962C169.348 82.6962 169.14 82.9042 169.14 83.3202C169.14 83.7362 169.348 83.9442 169.764 83.9442ZM170.772 87.7362C170.772 88.1522 170.98 88.3602 171.396 88.3602C171.78 88.3602 171.972 88.1522 171.972 87.7362C171.972 87.3522 171.78 87.1602 171.396 87.1602C170.98 87.1602 170.772 87.3522 170.772 87.7362ZM171.78 96.8082C171.78 97.2242 171.972 97.4322 172.356 97.4322C172.772 97.4322 172.98 97.2242 172.98 96.8082C172.98 96.4242 172.772 96.2322 172.356 96.2322C171.972 96.2322 171.78 96.4242 171.78 96.8082ZM172.692 106.504C172.852 106.504 172.98 106.456 173.076 106.36C173.204 106.232 173.268 106.088 173.268 105.928C173.268 105.768 173.204 105.624 173.076 105.496C172.98 105.368 172.852 105.304 172.692 105.304C172.276 105.304 172.068 105.512 172.068 105.928C172.068 106.312 172.276 106.504 172.692 106.504ZM172.692 101.8C172.852 101.8 172.98 101.736 173.076 101.608C173.204 101.48 173.268 101.336 173.268 101.176C173.268 101.016 173.204 100.888 173.076 100.792C172.98 100.664 172.852 100.6 172.692 100.6C172.532 100.6 172.388 100.664 172.26 100.792C172.132 100.888 172.068 101.016 172.068 101.176C172.068 101.592 172.276 101.8 172.692 101.8ZM201.831 108.856C201.927 108.92 201.959 109 201.927 109.096C201.895 109.192 201.815 109.24 201.687 109.24H193.239C193.111 109.24 193.031 109.192 192.999 109.096C192.967 109 192.999 108.92 193.095 108.856C193.831 108.248 194.199 106.92 194.199 104.872V102.664V101.56C194.199 100.664 194.023 99.8162 193.671 99.0162C193.351 98.2162 192.887 97.5282 192.279 96.9522C191.671 96.3442 190.967 95.8802 190.167 95.5602C189.367 95.2082 188.519 95.0322 187.623 95.0322H186.567V98.2962V102.664V104.872C186.567 106.92 186.919 108.248 187.623 108.856C187.719 108.92 187.751 109 187.719 109.096C187.719 109.192 187.639 109.24 187.479 109.24H186.567H184.359H179.031C178.903 109.24 178.823 109.192 178.791 109.096C178.759 109 178.807 108.92 178.935 108.856C179.639 108.216 179.991 106.888 179.991 104.872V80.8242C179.991 78.7762 179.639 77.4482 178.935 76.8402C178.807 76.7442 178.759 76.6482 178.791 76.5522C178.823 76.4562 178.903 76.4082 179.031 76.4082H184.359H191.415C192.695 76.4082 193.895 76.6642 195.015 77.1762C196.167 77.6562 197.159 78.3282 197.991 79.1922C198.855 80.0242 199.527 81.0162 200.007 82.1682C200.519 83.2882 200.775 84.4882 200.775 85.7682C200.775 87.1442 200.487 88.4562 199.911 89.7042C199.335 90.9522 198.519 92.0082 197.463 92.8722C198.615 94.2162 199.447 95.5762 199.959 96.9522C200.503 98.2962 200.775 99.8322 200.775 101.56V102.664V104.872C200.775 106.92 201.127 108.248 201.831 108.856ZM183.207 107.176C183.623 107.176 183.831 106.984 183.831 106.6C183.831 106.184 183.623 105.976 183.207 105.976C182.823 105.976 182.631 106.184 182.631 106.6C182.631 106.984 182.823 107.176 183.207 107.176ZM183.207 102.616C183.623 102.616 183.831 102.408 183.831 101.992C183.831 101.832 183.767 101.704 183.639 101.608C183.511 101.48 183.367 101.416 183.207 101.416C183.047 101.416 182.903 101.48 182.775 101.608C182.679 101.704 182.631 101.832 182.631 101.992C182.631 102.408 182.823 102.616 183.207 102.616ZM183.207 98.2482C183.623 98.2482 183.831 98.0402 183.831 97.6242C183.831 97.4642 183.767 97.3362 183.639 97.2402C183.511 97.1122 183.367 97.0482 183.207 97.0482C183.047 97.0482 182.903 97.1122 182.775 97.2402C182.679 97.3362 182.631 97.4642 182.631 97.6242C182.631 98.0402 182.823 98.2482 183.207 98.2482ZM183.207 93.7842C183.623 93.7842 183.831 93.5762 183.831 93.1602C183.831 93.0002 183.767 92.8722 183.639 92.7762C183.511 92.6482 183.367 92.5842 183.207 92.5842C183.047 92.5842 182.903 92.6482 182.775 92.7762C182.679 92.8722 182.631 93.0002 182.631 93.1602C182.631 93.5762 182.823 93.7842 183.207 93.7842ZM183.255 89.2722C183.639 89.2722 183.831 89.0802 183.831 88.6962C183.831 88.3122 183.639 88.1202 183.255 88.1202C182.871 88.1202 182.679 88.3122 182.679 88.6962C182.679 89.0802 182.871 89.2722 183.255 89.2722ZM182.631 84.2802C182.631 84.6642 182.823 84.8562 183.207 84.8562C183.623 84.8562 183.831 84.6642 183.831 84.2802C183.831 83.8962 183.623 83.7042 183.207 83.7042C182.823 83.7042 182.631 83.8962 182.631 84.2802ZM183.255 80.4402C183.639 80.4402 183.831 80.2322 183.831 79.8162C183.831 79.4322 183.639 79.2402 183.255 79.2402C182.871 79.2402 182.679 79.4322 182.679 79.8162C182.679 80.2322 182.871 80.4402 183.255 80.4402ZM197.463 85.6722C197.303 85.6722 197.159 85.7362 197.031 85.8642C196.903 85.9602 196.839 86.0882 196.839 86.2482C196.839 86.6642 197.047 86.8722 197.463 86.8722C197.847 86.8722 198.039 86.6642 198.039 86.2482C198.039 86.0882 197.975 85.9602 197.847 85.8642C197.751 85.7362 197.623 85.6722 197.463 85.6722ZM196.359 81.6882C195.975 81.6882 195.783 81.8802 195.783 82.2642C195.783 82.6482 195.975 82.8402 196.359 82.8402C196.775 82.8402 196.983 82.6482 196.983 82.2642C196.983 81.8802 196.775 81.6882 196.359 81.6882ZM192.279 79.2402C191.895 79.2402 191.703 79.4482 191.703 79.8642C191.703 80.0242 191.751 80.1682 191.847 80.2962C191.975 80.3922 192.119 80.4402 192.279 80.4402C192.439 80.4402 192.583 80.3922 192.711 80.2962C192.839 80.1682 192.903 80.0242 192.903 79.8642C192.903 79.4482 192.695 79.2402 192.279 79.2402ZM187.527 79.2402C187.367 79.2402 187.223 79.3042 187.095 79.4322C186.999 79.5602 186.951 79.7042 186.951 79.8642C186.951 80.0242 186.999 80.1682 187.095 80.2962C187.223 80.3922 187.367 80.4402 187.527 80.4402C187.687 80.4402 187.831 80.3922 187.959 80.2962C188.087 80.1682 188.151 80.0242 188.151 79.8642C188.151 79.4482 187.943 79.2402 187.527 79.2402ZM187.143 92.1522C187.303 92.1522 187.431 92.0882 187.527 91.9602C187.655 91.8322 187.719 91.6882 187.719 91.5282C187.719 91.3682 187.655 91.2402 187.527 91.1442C187.431 91.0162 187.303 90.9522 187.143 90.9522C186.983 90.9522 186.839 91.0162 186.711 91.1442C186.583 91.2402 186.519 91.3682 186.519 91.5282C186.519 91.9442 186.727 92.1522 187.143 92.1522ZM191.559 92.2482C191.975 92.2482 192.183 92.0562 192.183 91.6722C192.183 91.2562 191.975 91.0482 191.559 91.0482C191.175 91.0482 190.983 91.2562 190.983 91.6722C190.983 92.0562 191.175 92.2482 191.559 92.2482ZM191.415 88.5522C192.183 88.5522 192.839 88.2962 193.383 87.7842C193.927 87.2402 194.199 86.5682 194.199 85.7682C194.199 85.0002 193.927 84.3442 193.383 83.8002C192.839 83.2562 192.183 82.9842 191.415 82.9842H186.567V83.0322V83.3682V88.5042V88.5522H191.415ZM194.535 95.3202C194.951 95.3202 195.159 95.1282 195.159 94.7442C195.159 94.3282 194.951 94.1202 194.535 94.1202C194.151 94.1202 193.959 94.3282 193.959 94.7442C193.959 95.1282 194.151 95.3202 194.535 95.3202ZM195.255 90.8082C195.255 91.1922 195.463 91.3842 195.879 91.3842C196.039 91.3842 196.167 91.3362 196.263 91.2402C196.391 91.1122 196.455 90.9682 196.455 90.8082C196.455 90.6482 196.391 90.5042 196.263 90.3762C196.167 90.2482 196.039 90.1842 195.879 90.1842C195.463 90.1842 195.255 90.3922 195.255 90.8082ZM196.263 98.2002C196.263 98.5842 196.471 98.7762 196.887 98.7762C197.271 98.7762 197.463 98.5842 197.463 98.2002C197.463 97.7842 197.271 97.5762 196.887 97.5762C196.471 97.5762 196.263 97.7842 196.263 98.2002ZM197.511 101.752C197.351 101.752 197.207 101.816 197.079 101.944C196.983 102.04 196.935 102.168 196.935 102.328C196.935 102.488 196.983 102.632 197.079 102.76C197.207 102.856 197.351 102.904 197.511 102.904C197.927 102.904 198.135 102.712 198.135 102.328C198.135 101.944 197.927 101.752 197.511 101.752ZM197.655 107.176C198.071 107.176 198.279 106.984 198.279 106.6C198.279 106.184 198.071 105.976 197.655 105.976C197.495 105.976 197.351 106.04 197.223 106.168C197.127 106.296 197.079 106.44 197.079 106.6C197.079 106.76 197.127 106.904 197.223 107.032C197.351 107.128 197.495 107.176 197.655 107.176ZM226.453 104.872C226.453 106.952 226.805 108.296 227.509 108.904C227.605 108.968 227.637 109.048 227.605 109.144C227.605 109.208 227.525 109.24 227.365 109.24H203.653C203.493 109.24 203.397 109.208 203.365 109.144C203.365 109.048 203.413 108.968 203.509 108.904C204.213 108.296 204.565 106.952 204.565 104.872V102.712V80.8242C204.565 77.9122 203.845 76.4562 202.405 76.4562H227.365C227.525 76.4562 227.605 76.5042 227.605 76.6002C227.637 76.6962 227.605 76.7762 227.509 76.8402C226.805 77.4482 226.453 78.7762 226.453 80.8242V83.0322V83.9922C226.453 84.1202 226.405 84.2002 226.309 84.2322C226.213 84.2642 226.133 84.2162 226.069 84.0882C225.461 83.3842 224.133 83.0322 222.085 83.0322H211.141V85.1922V89.5602H217.717C219.765 89.5602 221.093 89.2082 221.701 88.5042C221.765 88.4082 221.845 88.3762 221.941 88.4082C222.037 88.4402 222.085 88.5202 222.085 88.6482V89.5602V91.7682V96.1362V97.0962C222.085 97.2242 222.037 97.3042 221.941 97.3362C221.845 97.3682 221.765 97.3362 221.701 97.2402C221.061 96.5042 219.733 96.1362 217.717 96.1362H211.141V98.2962V102.712H222.085C224.101 102.712 225.429 102.344 226.069 101.608C226.133 101.512 226.213 101.48 226.309 101.512C226.405 101.544 226.453 101.624 226.453 101.752V102.712V104.872ZM219.685 92.3922C219.301 92.3922 219.109 92.6002 219.109 93.0162C219.109 93.4002 219.301 93.5922 219.685 93.5922C220.101 93.5922 220.309 93.4002 220.309 93.0162C220.309 92.6002 220.101 92.3922 219.685 92.3922ZM223.861 79.0482C223.701 79.0482 223.557 79.1122 223.429 79.2402C223.333 79.3362 223.285 79.4642 223.285 79.6242C223.285 79.7842 223.333 79.9282 223.429 80.0562C223.557 80.1842 223.701 80.2482 223.861 80.2482C224.277 80.2482 224.485 80.0402 224.485 79.6242C224.485 79.2402 224.277 79.0482 223.861 79.0482ZM219.973 79.0482C219.557 79.0482 219.349 79.2402 219.349 79.6242C219.349 80.0402 219.557 80.2482 219.973 80.2482C220.133 80.2482 220.261 80.1842 220.357 80.0562C220.485 79.9282 220.549 79.7842 220.549 79.6242C220.549 79.4642 220.485 79.3362 220.357 79.2402C220.261 79.1122 220.133 79.0482 219.973 79.0482ZM215.941 79.0482C215.525 79.0482 215.317 79.2402 215.317 79.6242C215.317 80.0402 215.525 80.2482 215.941 80.2482C216.101 80.2482 216.229 80.1842 216.325 80.0562C216.453 79.9282 216.517 79.7842 216.517 79.6242C216.517 79.4642 216.453 79.3362 216.325 79.2402C216.229 79.1122 216.101 79.0482 215.941 79.0482ZM211.813 79.0482C211.429 79.0482 211.237 79.2402 211.237 79.6242C211.237 80.0402 211.429 80.2482 211.813 80.2482C212.197 80.2482 212.389 80.0402 212.389 79.6242C212.389 79.2402 212.197 79.0482 211.813 79.0482ZM215.653 92.3922C215.269 92.3922 215.077 92.6002 215.077 93.0162C215.077 93.4002 215.269 93.5922 215.653 93.5922C216.069 93.5922 216.277 93.4002 216.277 93.0162C216.277 92.6002 216.069 92.3922 215.653 92.3922ZM211.717 92.3922C211.301 92.3922 211.093 92.6002 211.093 93.0162C211.093 93.4002 211.301 93.5922 211.717 93.5922C211.877 93.5922 212.005 93.5442 212.101 93.4482C212.229 93.3202 212.293 93.1762 212.293 93.0162C212.293 92.8562 212.229 92.7122 212.101 92.5842C212.005 92.4562 211.877 92.3922 211.717 92.3922ZM207.637 106.984C208.053 106.984 208.261 106.792 208.261 106.408C208.261 105.992 208.053 105.784 207.637 105.784C207.253 105.784 207.061 105.992 207.061 106.408C207.061 106.792 207.253 106.984 207.637 106.984ZM207.637 102.424C208.053 102.424 208.261 102.232 208.261 101.848C208.261 101.432 208.053 101.224 207.637 101.224C207.253 101.224 207.061 101.432 207.061 101.848C207.061 102.232 207.253 102.424 207.637 102.424ZM207.637 98.0562C208.053 98.0562 208.261 97.8482 208.261 97.4322C208.261 97.0482 208.053 96.8562 207.637 96.8562C207.253 96.8562 207.061 97.0482 207.061 97.4322C207.061 97.8482 207.253 98.0562 207.637 98.0562ZM207.637 93.5922C208.053 93.5922 208.261 93.4002 208.261 93.0162C208.261 92.6002 208.053 92.3922 207.637 92.3922C207.253 92.3922 207.061 92.6002 207.061 93.0162C207.061 93.4002 207.253 93.5922 207.637 93.5922ZM207.685 89.1282C208.101 89.1282 208.309 88.9202 208.309 88.5042C208.309 88.1202 208.101 87.9282 207.685 87.9282C207.269 87.9282 207.061 88.1202 207.061 88.5042C207.061 88.9202 207.269 89.1282 207.685 89.1282ZM207.061 84.0882C207.061 84.4722 207.253 84.6642 207.637 84.6642C208.053 84.6642 208.261 84.4722 208.261 84.0882C208.261 83.6722 208.053 83.4642 207.637 83.4642C207.253 83.4642 207.061 83.6722 207.061 84.0882ZM207.685 80.2482C208.101 80.2482 208.309 80.0402 208.309 79.6242C208.309 79.2402 208.101 79.0482 207.685 79.0482C207.269 79.0482 207.061 79.2402 207.061 79.6242C207.061 80.0402 207.269 80.2482 207.685 80.2482ZM211.669 106.984C212.085 106.984 212.293 106.792 212.293 106.408C212.293 105.992 212.085 105.784 211.669 105.784C211.285 105.784 211.093 105.992 211.093 106.408C211.093 106.792 211.285 106.984 211.669 106.984ZM215.653 106.984C215.813 106.984 215.941 106.936 216.037 106.84C216.165 106.712 216.229 106.568 216.229 106.408C216.229 106.248 216.165 106.104 216.037 105.976C215.941 105.848 215.813 105.784 215.653 105.784C215.237 105.784 215.029 105.992 215.029 106.408C215.029 106.792 215.237 106.984 215.653 106.984ZM219.685 106.984C220.069 106.984 220.261 106.792 220.261 106.408C220.261 105.992 220.069 105.784 219.685 105.784C219.269 105.784 219.061 105.992 219.061 106.408C219.061 106.792 219.269 106.984 219.685 106.984ZM223.909 106.984C224.069 106.984 224.197 106.936 224.293 106.84C224.421 106.712 224.485 106.568 224.485 106.408C224.485 106.248 224.421 106.104 224.293 105.976C224.197 105.848 224.069 105.784 223.909 105.784C223.493 105.784 223.285 105.992 223.285 106.408C223.285 106.792 223.493 106.984 223.909 106.984Z" fill="#FF615D"/>
</svg>
