<svg width="357" height="190" viewBox="0 0 357 190" fill="none" xmlns="http://www.w3.org/2000/svg">
<rect width="357" height="190" fill="#E7ECF0"/>
<rect y="42.4581" width="357" height="102.961" fill="white"/>
<path d="M85.4197 76.4562C85.5477 76.4562 85.6277 76.5042 85.6597 76.6002C85.6917 76.6642 85.6437 76.7442 85.5157 76.8402C84.8117 77.4482 84.4597 78.7762 84.4597 80.8242V98.2962C84.4597 99.8002 84.1717 101.224 83.5957 102.568C83.0197 103.88 82.2357 105.032 81.2437 106.024C80.2517 107.016 79.0837 107.8 77.7397 108.376C76.4277 108.952 75.0197 109.24 73.5157 109.24C72.0117 109.24 70.5877 108.952 69.2437 108.376C67.9317 107.8 66.7797 107.016 65.7877 106.024C64.7957 105.032 64.0117 103.88 63.4357 102.568C62.8917 101.224 62.6197 99.8002 62.6197 98.2962V80.8242C62.6197 78.7442 62.2517 77.4162 61.5157 76.8402C61.4197 76.7442 61.3877 76.6642 61.4197 76.6002C61.4517 76.5042 61.5317 76.4562 61.6597 76.4562H70.1077C70.2357 76.4562 70.3157 76.5042 70.3477 76.6002C70.3797 76.6642 70.3477 76.7442 70.2517 76.8402C69.5157 77.4162 69.1477 78.7442 69.1477 80.8242V87.4002V93.9282V98.2962C69.1477 98.9042 69.2597 99.4802 69.4837 100.024C69.7077 100.536 70.0117 101 70.3957 101.416C70.8117 101.8 71.2757 102.104 71.7877 102.328C72.3317 102.552 72.9077 102.664 73.5157 102.664C74.7317 102.664 75.7557 102.248 76.5877 101.416C77.4517 100.552 77.8837 99.5122 77.8837 98.2962V93.9282V87.4002V80.8242C77.8837 78.7442 77.5317 77.4162 76.8277 76.8402C76.5717 76.5842 76.6197 76.4562 76.9717 76.4562H85.4197ZM66.2677 79.0482C65.8517 79.0482 65.6437 79.2562 65.6437 79.6722C65.6437 79.8322 65.7077 79.9762 65.8357 80.1042C65.9637 80.2002 66.1077 80.2482 66.2677 80.2482C66.4277 80.2482 66.5717 80.2002 66.6997 80.1042C66.8277 79.9762 66.8917 79.8322 66.8917 79.6722C66.8917 79.2562 66.6837 79.0482 66.2677 79.0482ZM66.2197 83.5122C66.0597 83.5122 65.9157 83.5762 65.7877 83.7042C65.6917 83.8002 65.6437 83.9282 65.6437 84.0882C65.6437 84.2482 65.6917 84.3922 65.7877 84.5202C65.9157 84.6482 66.0597 84.7122 66.2197 84.7122C66.6357 84.7122 66.8437 84.5042 66.8437 84.0882C66.8437 83.7042 66.6357 83.5122 66.2197 83.5122ZM66.8917 88.5042C66.8917 88.1202 66.6837 87.9282 66.2677 87.9282C65.8517 87.9282 65.6437 88.1202 65.6437 88.5042C65.6437 88.9202 65.8517 89.1282 66.2677 89.1282C66.6837 89.1282 66.8917 88.9202 66.8917 88.5042ZM66.2197 92.3922C66.0597 92.3922 65.9157 92.4562 65.7877 92.5842C65.6917 92.7122 65.6437 92.8562 65.6437 93.0162C65.6437 93.1762 65.6917 93.3202 65.7877 93.4482C65.9157 93.5442 66.0597 93.5922 66.2197 93.5922C66.6357 93.5922 66.8437 93.4002 66.8437 93.0162C66.8437 92.6002 66.6357 92.3922 66.2197 92.3922ZM65.6437 97.4802C65.6437 97.6402 65.6917 97.7842 65.7877 97.9122C65.9157 98.0082 66.0597 98.0562 66.2197 98.0562C66.6357 98.0562 66.8437 97.8642 66.8437 97.4802C66.8437 97.0642 66.6357 96.8562 66.2197 96.8562C66.0597 96.8562 65.9157 96.9202 65.7877 97.0482C65.6917 97.1442 65.6437 97.2882 65.6437 97.4802ZM66.5077 102.424C66.9237 102.424 67.1317 102.232 67.1317 101.848C67.1317 101.432 66.9237 101.224 66.5077 101.224C66.1237 101.224 65.9317 101.432 65.9317 101.848C65.9317 102.232 66.1237 102.424 66.5077 102.424ZM69.5797 105.256C69.9637 105.256 70.1557 105.064 70.1557 104.68C70.1557 104.264 69.9637 104.056 69.5797 104.056C69.1957 104.056 69.0037 104.264 69.0037 104.68C69.0037 105.064 69.1957 105.256 69.5797 105.256ZM73.8037 106.408C74.2197 106.408 74.4277 106.2 74.4277 105.784C74.4277 105.4 74.2197 105.208 73.8037 105.208C73.4197 105.208 73.2277 105.4 73.2277 105.784C73.2277 106.2 73.4197 106.408 73.8037 106.408ZM81.0517 78.4722C80.6357 78.4722 80.4277 78.6642 80.4277 79.0482C80.4277 79.4642 80.6357 79.6722 81.0517 79.6722C81.2117 79.6722 81.3397 79.6082 81.4357 79.4802C81.5637 79.3522 81.6277 79.2082 81.6277 79.0482C81.6277 78.8882 81.5637 78.7602 81.4357 78.6642C81.3397 78.5362 81.2117 78.4722 81.0517 78.4722ZM78.1717 105.256C78.5877 105.256 78.7957 105.064 78.7957 104.68C78.7957 104.264 78.5877 104.056 78.1717 104.056C78.0117 104.056 77.8677 104.12 77.7397 104.248C77.6437 104.376 77.5957 104.52 77.5957 104.68C77.5957 104.84 77.6437 104.984 77.7397 105.112C77.8677 105.208 78.0117 105.256 78.1717 105.256ZM80.6197 101.416C80.7797 101.416 80.9077 101.368 81.0037 101.272C81.1317 101.144 81.1957 101 81.1957 100.84C81.1957 100.68 81.1317 100.536 81.0037 100.408C80.9077 100.28 80.7797 100.216 80.6197 100.216C80.2037 100.216 79.9957 100.424 79.9957 100.84C79.9957 101.224 80.2037 101.416 80.6197 101.416ZM81.1957 96.6642C81.5797 96.6642 81.7717 96.4722 81.7717 96.0882C81.7717 95.6722 81.5797 95.4642 81.1957 95.4642C80.7797 95.4642 80.5717 95.6722 80.5717 96.0882C80.5717 96.4722 80.7797 96.6642 81.1957 96.6642ZM81.1957 92.7282C81.5797 92.7282 81.7717 92.5362 81.7717 92.1522C81.7717 91.7682 81.5797 91.5762 81.1957 91.5762C80.7797 91.5762 80.5717 91.7682 80.5717 92.1522C80.5717 92.5362 80.7797 92.7282 81.1957 92.7282ZM81.1957 88.5042C81.5797 88.5042 81.7717 88.2962 81.7717 87.8802C81.7717 87.4962 81.5797 87.3042 81.1957 87.3042C80.7797 87.3042 80.5717 87.4962 80.5717 87.8802C80.5717 88.2962 80.7797 88.5042 81.1957 88.5042ZM81.1957 84.1842C81.5797 84.1842 81.7717 83.9762 81.7717 83.5602C81.7717 83.1762 81.5797 82.9842 81.1957 82.9842C80.7797 82.9842 80.5717 83.1762 80.5717 83.5602C80.5717 83.9762 80.7797 84.1842 81.1957 84.1842ZM106.698 108.856C106.794 108.92 106.826 109 106.794 109.096C106.794 109.192 106.714 109.24 106.554 109.24H105.642H87.21H87.162C86.842 109.176 86.81 109.048 87.066 108.856C87.77 108.248 88.122 106.92 88.122 104.872V102.664V80.8242C88.122 78.7762 87.77 77.4482 87.066 76.8402C86.81 76.5842 86.858 76.4562 87.21 76.4562H95.61C95.77 76.4562 95.866 76.5042 95.898 76.6002C95.93 76.6642 95.882 76.7442 95.754 76.8402C95.05 77.4482 94.698 78.7762 94.698 80.8242V85.1922V89.5602V96.1362V98.2962V102.664H101.226C103.306 102.664 104.634 102.312 105.21 101.608C105.306 101.512 105.402 101.48 105.498 101.512C105.594 101.512 105.642 101.592 105.642 101.752V102.664V104.872C105.642 106.92 105.994 108.248 106.698 108.856ZM91.482 107.032C91.898 107.032 92.106 106.824 92.106 106.408C92.106 106.024 91.898 105.832 91.482 105.832C91.098 105.832 90.906 106.024 90.906 106.408C90.906 106.824 91.098 107.032 91.482 107.032ZM91.482 102.424C91.898 102.424 92.106 102.232 92.106 101.848C92.106 101.432 91.898 101.224 91.482 101.224C91.098 101.224 90.906 101.432 90.906 101.848C90.906 102.232 91.098 102.424 91.482 102.424ZM91.482 98.0562C91.642 98.0562 91.786 98.0082 91.914 97.9122C92.042 97.7842 92.106 97.6402 92.106 97.4802C92.106 97.0642 91.898 96.8562 91.482 96.8562C91.098 96.8562 90.906 97.0642 90.906 97.4802C90.906 97.6402 90.954 97.7842 91.05 97.9122C91.178 98.0082 91.322 98.0562 91.482 98.0562ZM91.482 93.5922C91.642 93.5922 91.786 93.5442 91.914 93.4482C92.042 93.3202 92.106 93.1762 92.106 93.0162C92.106 92.6002 91.898 92.3922 91.482 92.3922C91.098 92.3922 90.906 92.6002 90.906 93.0162C90.906 93.1762 90.954 93.3202 91.05 93.4482C91.178 93.5442 91.322 93.5922 91.482 93.5922ZM91.53 89.1282C91.914 89.1282 92.106 88.9202 92.106 88.5042C92.106 88.3442 92.042 88.2162 91.914 88.1202C91.818 87.9922 91.69 87.9282 91.53 87.9282C91.37 87.9282 91.226 87.9922 91.098 88.1202C90.97 88.2162 90.906 88.3442 90.906 88.5042C90.906 88.9202 91.114 89.1282 91.53 89.1282ZM90.906 84.0882C90.906 84.5042 91.098 84.7122 91.482 84.7122C91.898 84.7122 92.106 84.5042 92.106 84.0882C92.106 83.9282 92.042 83.8002 91.914 83.7042C91.786 83.5762 91.642 83.5122 91.482 83.5122C91.322 83.5122 91.178 83.5762 91.05 83.7042C90.954 83.8002 90.906 83.9282 90.906 84.0882ZM91.53 80.2482C91.914 80.2482 92.106 80.0402 92.106 79.6242C92.106 79.4642 92.042 79.3362 91.914 79.2402C91.818 79.1122 91.69 79.0482 91.53 79.0482C91.37 79.0482 91.226 79.1122 91.098 79.2402C90.97 79.3362 90.906 79.4642 90.906 79.6242C90.906 80.0402 91.114 80.2482 91.53 80.2482ZM96.858 107.032C97.274 107.032 97.482 106.824 97.482 106.408C97.482 106.024 97.274 105.832 96.858 105.832C96.474 105.832 96.282 106.024 96.282 106.408C96.282 106.824 96.474 107.032 96.858 107.032ZM102.138 107.032C102.522 107.032 102.714 106.824 102.714 106.408C102.714 106.024 102.522 105.832 102.138 105.832C101.722 105.832 101.514 106.024 101.514 106.408C101.514 106.824 101.722 107.032 102.138 107.032ZM132.201 76.4562C132.329 76.4562 132.409 76.5042 132.441 76.6002C132.473 76.6642 132.425 76.7442 132.297 76.8402C131.593 77.4802 131.241 78.8082 131.241 80.8242V82.9842V83.9442C131.241 84.0722 131.193 84.1522 131.097 84.1842C131.001 84.2162 130.921 84.1842 130.857 84.0882C130.217 83.3522 128.889 82.9842 126.873 82.9842H123.561V86.9682V93.9282V102.376V104.872C123.561 106.92 123.913 108.248 124.617 108.856C124.713 108.92 124.745 109 124.713 109.096C124.713 109.192 124.633 109.24 124.473 109.24H116.025C115.897 109.24 115.817 109.192 115.785 109.096C115.753 109 115.801 108.92 115.929 108.856C116.633 108.216 116.985 106.888 116.985 104.872V82.9842H113.673C111.593 82.9842 110.265 83.3522 109.689 84.0882C109.593 84.1842 109.497 84.2162 109.401 84.1842C109.337 84.1522 109.305 84.0722 109.305 83.9442V82.9842V80.8242C109.305 78.8082 108.937 77.4802 108.201 76.8402C108.105 76.7442 108.073 76.6642 108.105 76.6002C108.137 76.5042 108.217 76.4562 108.345 76.4562H109.305H115.833H121.353H125.721H131.241H132.201ZM111.897 79.9602C112.313 79.9602 112.521 79.7522 112.521 79.3362C112.521 78.9522 112.313 78.7602 111.897 78.7602C111.513 78.7602 111.321 78.9522 111.321 79.3362C111.321 79.7522 111.513 79.9602 111.897 79.9602ZM116.121 79.9602C116.505 79.9602 116.697 79.7522 116.697 79.3362C116.697 78.9522 116.505 78.7602 116.121 78.7602C115.705 78.7602 115.497 78.9522 115.497 79.3362C115.497 79.7522 115.705 79.9602 116.121 79.9602ZM120.297 106.696C120.457 106.696 120.601 106.648 120.729 106.552C120.857 106.424 120.921 106.28 120.921 106.12C120.921 105.704 120.713 105.496 120.297 105.496C119.913 105.496 119.721 105.704 119.721 106.12C119.721 106.28 119.769 106.424 119.865 106.552C119.993 106.648 120.137 106.696 120.297 106.696ZM120.297 102.136C120.457 102.136 120.601 102.088 120.729 101.992C120.857 101.864 120.921 101.72 120.921 101.56C120.921 101.144 120.713 100.936 120.297 100.936C119.913 100.936 119.721 101.144 119.721 101.56C119.721 101.72 119.769 101.864 119.865 101.992C119.993 102.088 120.137 102.136 120.297 102.136ZM120.297 97.7202C120.713 97.7202 120.921 97.5282 120.921 97.1442C120.921 96.7602 120.713 96.5682 120.297 96.5682C119.913 96.5682 119.721 96.7602 119.721 97.1442C119.721 97.5282 119.913 97.7202 120.297 97.7202ZM120.297 93.3042C120.457 93.3042 120.601 93.2562 120.729 93.1602C120.857 93.0322 120.921 92.8882 120.921 92.7282C120.921 92.3122 120.713 92.1042 120.297 92.1042C119.913 92.1042 119.721 92.3122 119.721 92.7282C119.721 92.8882 119.769 93.0322 119.865 93.1602C119.993 93.2562 120.137 93.3042 120.297 93.3042ZM120.345 88.7922C120.729 88.7922 120.921 88.6002 120.921 88.2162C120.921 87.8002 120.729 87.5922 120.345 87.5922C119.929 87.5922 119.721 87.8002 119.721 88.2162C119.721 88.6002 119.929 88.7922 120.345 88.7922ZM119.721 83.8002C119.721 84.1842 119.913 84.3762 120.297 84.3762C120.713 84.3762 120.921 84.1842 120.921 83.8002C120.921 83.3842 120.713 83.1762 120.297 83.1762C119.913 83.1762 119.721 83.3842 119.721 83.8002ZM120.345 79.9602C120.729 79.9602 120.921 79.7522 120.921 79.3362C120.921 78.9522 120.729 78.7602 120.345 78.7602C119.929 78.7602 119.721 78.9522 119.721 79.3362C119.721 79.7522 119.929 79.9602 120.345 79.9602ZM124.521 79.9602C124.905 79.9602 125.097 79.7522 125.097 79.3362C125.097 78.9522 124.905 78.7602 124.521 78.7602C124.105 78.7602 123.897 78.9522 123.897 79.3362C123.897 79.7522 124.105 79.9602 124.521 79.9602ZM128.745 79.9602C129.129 79.9602 129.321 79.7522 129.321 79.3362C129.321 78.9522 129.129 78.7602 128.745 78.7602C128.329 78.7602 128.121 78.9522 128.121 79.3362C128.121 79.7522 128.329 79.9602 128.745 79.9602ZM156.55 108.856C156.646 108.92 156.678 109 156.646 109.096C156.614 109.192 156.534 109.24 156.406 109.24H147.958C147.83 109.24 147.75 109.192 147.718 109.096C147.686 109 147.718 108.92 147.814 108.856C148.55 108.248 148.918 106.92 148.918 104.872V102.664V101.56C148.918 100.664 148.742 99.8162 148.39 99.0162C148.07 98.2162 147.606 97.5282 146.998 96.9522C146.39 96.3442 145.686 95.8802 144.886 95.5602C144.086 95.2082 143.238 95.0322 142.342 95.0322H141.286V98.2962V102.664V104.872C141.286 106.92 141.638 108.248 142.342 108.856C142.438 108.92 142.47 109 142.438 109.096C142.438 109.192 142.358 109.24 142.198 109.24H141.286H139.078H133.75C133.622 109.24 133.542 109.192 133.51 109.096C133.478 109 133.526 108.92 133.654 108.856C134.358 108.216 134.71 106.888 134.71 104.872V80.8242C134.71 78.7762 134.358 77.4482 133.654 76.8402C133.526 76.7442 133.478 76.6482 133.51 76.5522C133.542 76.4562 133.622 76.4082 133.75 76.4082H139.078H146.134C147.414 76.4082 148.614 76.6642 149.734 77.1762C150.886 77.6562 151.878 78.3282 152.71 79.1922C153.574 80.0242 154.246 81.0162 154.726 82.1682C155.238 83.2882 155.494 84.4882 155.494 85.7682C155.494 87.1442 155.206 88.4562 154.63 89.7042C154.054 90.9522 153.238 92.0082 152.182 92.8722C153.334 94.2162 154.166 95.5762 154.678 96.9522C155.222 98.2962 155.494 99.8322 155.494 101.56V102.664V104.872C155.494 106.92 155.846 108.248 156.55 108.856ZM137.926 107.176C138.342 107.176 138.55 106.984 138.55 106.6C138.55 106.184 138.342 105.976 137.926 105.976C137.542 105.976 137.35 106.184 137.35 106.6C137.35 106.984 137.542 107.176 137.926 107.176ZM137.926 102.616C138.342 102.616 138.55 102.408 138.55 101.992C138.55 101.832 138.486 101.704 138.358 101.608C138.23 101.48 138.086 101.416 137.926 101.416C137.766 101.416 137.622 101.48 137.494 101.608C137.398 101.704 137.35 101.832 137.35 101.992C137.35 102.408 137.542 102.616 137.926 102.616ZM137.926 98.2482C138.342 98.2482 138.55 98.0402 138.55 97.6242C138.55 97.4642 138.486 97.3362 138.358 97.2402C138.23 97.1122 138.086 97.0482 137.926 97.0482C137.766 97.0482 137.622 97.1122 137.494 97.2402C137.398 97.3362 137.35 97.4642 137.35 97.6242C137.35 98.0402 137.542 98.2482 137.926 98.2482ZM137.926 93.7842C138.342 93.7842 138.55 93.5762 138.55 93.1602C138.55 93.0002 138.486 92.8722 138.358 92.7762C138.23 92.6482 138.086 92.5842 137.926 92.5842C137.766 92.5842 137.622 92.6482 137.494 92.7762C137.398 92.8722 137.35 93.0002 137.35 93.1602C137.35 93.5762 137.542 93.7842 137.926 93.7842ZM137.974 89.2722C138.358 89.2722 138.55 89.0802 138.55 88.6962C138.55 88.3122 138.358 88.1202 137.974 88.1202C137.59 88.1202 137.398 88.3122 137.398 88.6962C137.398 89.0802 137.59 89.2722 137.974 89.2722ZM137.35 84.2802C137.35 84.6642 137.542 84.8562 137.926 84.8562C138.342 84.8562 138.55 84.6642 138.55 84.2802C138.55 83.8962 138.342 83.7042 137.926 83.7042C137.542 83.7042 137.35 83.8962 137.35 84.2802ZM137.974 80.4402C138.358 80.4402 138.55 80.2322 138.55 79.8162C138.55 79.4322 138.358 79.2402 137.974 79.2402C137.59 79.2402 137.398 79.4322 137.398 79.8162C137.398 80.2322 137.59 80.4402 137.974 80.4402ZM152.182 85.6722C152.022 85.6722 151.878 85.7362 151.75 85.8642C151.622 85.9602 151.558 86.0882 151.558 86.2482C151.558 86.6642 151.766 86.8722 152.182 86.8722C152.566 86.8722 152.758 86.6642 152.758 86.2482C152.758 86.0882 152.694 85.9602 152.566 85.8642C152.47 85.7362 152.342 85.6722 152.182 85.6722ZM151.078 81.6882C150.694 81.6882 150.502 81.8802 150.502 82.2642C150.502 82.6482 150.694 82.8402 151.078 82.8402C151.494 82.8402 151.702 82.6482 151.702 82.2642C151.702 81.8802 151.494 81.6882 151.078 81.6882ZM146.998 79.2402C146.614 79.2402 146.422 79.4482 146.422 79.8642C146.422 80.0242 146.47 80.1682 146.566 80.2962C146.694 80.3922 146.838 80.4402 146.998 80.4402C147.158 80.4402 147.302 80.3922 147.43 80.2962C147.558 80.1682 147.622 80.0242 147.622 79.8642C147.622 79.4482 147.414 79.2402 146.998 79.2402ZM142.246 79.2402C142.086 79.2402 141.942 79.3042 141.814 79.4322C141.718 79.5602 141.67 79.7042 141.67 79.8642C141.67 80.0242 141.718 80.1682 141.814 80.2962C141.942 80.3922 142.086 80.4402 142.246 80.4402C142.406 80.4402 142.55 80.3922 142.678 80.2962C142.806 80.1682 142.87 80.0242 142.87 79.8642C142.87 79.4482 142.662 79.2402 142.246 79.2402ZM141.862 92.1522C142.022 92.1522 142.15 92.0882 142.246 91.9602C142.374 91.8322 142.438 91.6882 142.438 91.5282C142.438 91.3682 142.374 91.2402 142.246 91.1442C142.15 91.0162 142.022 90.9522 141.862 90.9522C141.702 90.9522 141.558 91.0162 141.43 91.1442C141.302 91.2402 141.238 91.3682 141.238 91.5282C141.238 91.9442 141.446 92.1522 141.862 92.1522ZM146.278 92.2482C146.694 92.2482 146.902 92.0562 146.902 91.6722C146.902 91.2562 146.694 91.0482 146.278 91.0482C145.894 91.0482 145.702 91.2562 145.702 91.6722C145.702 92.0562 145.894 92.2482 146.278 92.2482ZM146.134 88.5522C146.902 88.5522 147.558 88.2962 148.102 87.7842C148.646 87.2402 148.918 86.5682 148.918 85.7682C148.918 85.0002 148.646 84.3442 148.102 83.8002C147.558 83.2562 146.902 82.9842 146.134 82.9842H141.286V83.0322V83.3682V88.5042V88.5522H146.134ZM149.254 95.3202C149.67 95.3202 149.878 95.1282 149.878 94.7442C149.878 94.3282 149.67 94.1202 149.254 94.1202C148.87 94.1202 148.678 94.3282 148.678 94.7442C148.678 95.1282 148.87 95.3202 149.254 95.3202ZM149.974 90.8082C149.974 91.1922 150.182 91.3842 150.598 91.3842C150.758 91.3842 150.886 91.3362 150.982 91.2402C151.11 91.1122 151.174 90.9682 151.174 90.8082C151.174 90.6482 151.11 90.5042 150.982 90.3762C150.886 90.2482 150.758 90.1842 150.598 90.1842C150.182 90.1842 149.974 90.3922 149.974 90.8082ZM150.982 98.2002C150.982 98.5842 151.19 98.7762 151.606 98.7762C151.99 98.7762 152.182 98.5842 152.182 98.2002C152.182 97.7842 151.99 97.5762 151.606 97.5762C151.19 97.5762 150.982 97.7842 150.982 98.2002ZM152.23 101.752C152.07 101.752 151.926 101.816 151.798 101.944C151.702 102.04 151.654 102.168 151.654 102.328C151.654 102.488 151.702 102.632 151.798 102.76C151.926 102.856 152.07 102.904 152.23 102.904C152.646 102.904 152.854 102.712 152.854 102.328C152.854 101.944 152.646 101.752 152.23 101.752ZM152.374 107.176C152.79 107.176 152.998 106.984 152.998 106.6C152.998 106.184 152.79 105.976 152.374 105.976C152.214 105.976 152.07 106.04 151.942 106.168C151.846 106.296 151.798 106.44 151.798 106.6C151.798 106.76 151.846 106.904 151.942 107.032C152.07 107.128 152.214 107.176 152.374 107.176ZM181.988 108.856C182.084 108.952 182.116 109.048 182.084 109.144C182.052 109.208 181.972 109.24 181.844 109.24H173.396C173.268 109.24 173.188 109.208 173.156 109.144C173.124 109.048 173.156 108.952 173.252 108.856C173.988 108.28 174.356 106.952 174.356 104.872V100.504H165.572V104.872C165.572 106.952 165.94 108.28 166.676 108.856C166.932 109.112 166.884 109.24 166.532 109.24H158.084C157.956 109.24 157.876 109.208 157.844 109.144C157.812 109.048 157.844 108.952 157.94 108.856C158.676 108.28 159.044 106.952 159.044 104.872V98.3442V94.4562C159.044 93.0802 159.172 91.7682 159.428 90.5202C159.684 89.2402 160.084 87.9602 160.628 86.6802L163.124 80.8722C163.54 78.8242 163.444 77.4802 162.836 76.8402C162.74 76.7442 162.708 76.6642 162.74 76.6002C162.772 76.5042 162.852 76.4562 162.98 76.4562H176.948C177.268 76.4562 177.332 76.5842 177.14 76.8402C176.532 77.4162 176.42 78.7602 176.804 80.8722L179.3 86.6802C179.844 87.9602 180.244 89.2402 180.5 90.5202C180.756 91.7682 180.884 93.0802 180.884 94.4562V98.3442V104.872C180.884 106.952 181.252 108.28 181.988 108.856ZM177.044 91.6242C176.66 91.6242 176.468 91.8322 176.468 92.2482C176.468 92.4082 176.516 92.5522 176.612 92.6802C176.74 92.7762 176.884 92.8242 177.044 92.8242C177.204 92.8242 177.348 92.7762 177.476 92.6802C177.604 92.5522 177.668 92.4082 177.668 92.2482C177.668 91.8322 177.46 91.6242 177.044 91.6242ZM173.012 78.5682C172.628 78.5682 172.436 78.7602 172.436 79.1442C172.436 79.5602 172.628 79.7682 173.012 79.7682C173.396 79.7682 173.588 79.5602 173.588 79.1442C173.588 78.7602 173.396 78.5682 173.012 78.5682ZM166.916 79.0002C166.5 79.0002 166.292 79.1922 166.292 79.5762C166.292 79.9922 166.5 80.2002 166.916 80.2002C167.332 80.2002 167.54 79.9922 167.54 79.5762C167.54 79.1922 167.332 79.0002 166.916 79.0002ZM162.308 106.648C162.724 106.648 162.932 106.44 162.932 106.024C162.932 105.864 162.868 105.736 162.74 105.64C162.612 105.512 162.468 105.448 162.308 105.448C162.148 105.448 162.004 105.512 161.876 105.64C161.748 105.736 161.684 105.864 161.684 106.024C161.684 106.44 161.892 106.648 162.308 106.648ZM162.452 102.088C162.868 102.088 163.076 101.88 163.076 101.464C163.076 101.304 163.012 101.176 162.884 101.08C162.788 100.952 162.644 100.888 162.452 100.888C162.292 100.888 162.148 100.952 162.02 101.08C161.924 101.176 161.876 101.304 161.876 101.464C161.876 101.88 162.068 102.088 162.452 102.088ZM162.452 97.5282C162.868 97.5282 163.076 97.3362 163.076 96.9522C163.076 96.5362 162.868 96.3282 162.452 96.3282C162.068 96.3282 161.876 96.5362 161.876 96.9522C161.876 97.3362 162.068 97.5282 162.452 97.5282ZM162.74 93.1122C162.9 93.1122 163.044 93.0642 163.172 92.9682C163.3 92.8402 163.364 92.6962 163.364 92.5362C163.364 92.1202 163.156 91.9122 162.74 91.9122C162.356 91.9122 162.164 92.1202 162.164 92.5362C162.164 92.6962 162.212 92.8402 162.308 92.9682C162.436 93.0642 162.58 93.1122 162.74 93.1122ZM163.364 88.7442C163.748 88.7442 163.94 88.5522 163.94 88.1682C163.94 87.7842 163.748 87.5922 163.364 87.5922C162.948 87.5922 162.74 87.7842 162.74 88.1682C162.74 88.5522 162.948 88.7442 163.364 88.7442ZM165.332 84.3282C165.716 84.3282 165.908 84.1362 165.908 83.7522C165.908 83.3362 165.716 83.1282 165.332 83.1282C164.916 83.1282 164.708 83.3362 164.708 83.7522C164.708 84.1362 164.916 84.3282 165.332 84.3282ZM167.348 97.5282C167.764 97.5282 167.972 97.3362 167.972 96.9522C167.972 96.5362 167.764 96.3282 167.348 96.3282C166.932 96.3282 166.724 96.5362 166.724 96.9522C166.724 97.3362 166.932 97.5282 167.348 97.5282ZM172.292 97.5762C172.452 97.5762 172.58 97.5282 172.676 97.4322C172.804 97.3042 172.868 97.1602 172.868 97.0002C172.868 96.5842 172.676 96.3762 172.292 96.3762C171.876 96.3762 171.668 96.5842 171.668 97.0002C171.668 97.1602 171.716 97.3042 171.812 97.4322C171.94 97.5282 172.1 97.5762 172.292 97.5762ZM174.356 93.9762C174.26 92.3442 173.908 90.7762 173.3 89.2722L169.988 81.5442L166.676 89.2722C166.004 90.7762 165.652 92.3442 165.62 93.9762H174.356ZM174.452 83.9442C174.836 83.9442 175.028 83.7362 175.028 83.3202C175.028 82.9042 174.836 82.6962 174.452 82.6962C174.036 82.6962 173.828 82.9042 173.828 83.3202C173.828 83.7362 174.036 83.9442 174.452 83.9442ZM175.46 87.7362C175.46 88.1522 175.668 88.3602 176.084 88.3602C176.468 88.3602 176.66 88.1522 176.66 87.7362C176.66 87.3522 176.468 87.1602 176.084 87.1602C175.668 87.1602 175.46 87.3522 175.46 87.7362ZM176.468 96.8082C176.468 97.2242 176.66 97.4322 177.044 97.4322C177.46 97.4322 177.668 97.2242 177.668 96.8082C177.668 96.4242 177.46 96.2322 177.044 96.2322C176.66 96.2322 176.468 96.4242 176.468 96.8082ZM177.38 106.504C177.54 106.504 177.668 106.456 177.764 106.36C177.892 106.232 177.956 106.088 177.956 105.928C177.956 105.768 177.892 105.624 177.764 105.496C177.668 105.368 177.54 105.304 177.38 105.304C176.964 105.304 176.756 105.512 176.756 105.928C176.756 106.312 176.964 106.504 177.38 106.504ZM177.38 101.8C177.54 101.8 177.668 101.736 177.764 101.608C177.892 101.48 177.956 101.336 177.956 101.176C177.956 101.016 177.892 100.888 177.764 100.792C177.668 100.664 177.54 100.6 177.38 100.6C177.22 100.6 177.076 100.664 176.948 100.792C176.82 100.888 176.756 101.016 176.756 101.176C176.756 101.592 176.964 101.8 177.38 101.8ZM219.409 108.856C219.505 108.92 219.537 109 219.505 109.096C219.473 109.192 219.393 109.24 219.265 109.24H210.817C210.689 109.24 210.609 109.192 210.577 109.096C210.545 109 210.577 108.92 210.673 108.856C211.409 108.248 211.777 106.92 211.777 104.872V102.664V101.56C211.777 100.664 211.601 99.8162 211.249 99.0162C210.929 98.2162 210.465 97.5282 209.857 96.9522C209.249 96.3442 208.545 95.8802 207.745 95.5602C206.945 95.2082 206.097 95.0322 205.201 95.0322H204.145V98.2962V102.664V104.872C204.145 106.92 204.497 108.248 205.201 108.856C205.297 108.92 205.329 109 205.297 109.096C205.297 109.192 205.217 109.24 205.057 109.24H204.145H201.937H196.609C196.481 109.24 196.401 109.192 196.369 109.096C196.337 109 196.385 108.92 196.513 108.856C197.217 108.216 197.569 106.888 197.569 104.872V80.8242C197.569 78.7762 197.217 77.4482 196.513 76.8402C196.385 76.7442 196.337 76.6482 196.369 76.5522C196.401 76.4562 196.481 76.4082 196.609 76.4082H201.937H208.993C210.273 76.4082 211.473 76.6642 212.593 77.1762C213.745 77.6562 214.737 78.3282 215.569 79.1922C216.433 80.0242 217.105 81.0162 217.585 82.1682C218.097 83.2882 218.353 84.4882 218.353 85.7682C218.353 87.1442 218.065 88.4562 217.489 89.7042C216.913 90.9522 216.097 92.0082 215.041 92.8722C216.193 94.2162 217.025 95.5762 217.537 96.9522C218.081 98.2962 218.353 99.8322 218.353 101.56V102.664V104.872C218.353 106.92 218.705 108.248 219.409 108.856ZM200.785 107.176C201.201 107.176 201.409 106.984 201.409 106.6C201.409 106.184 201.201 105.976 200.785 105.976C200.401 105.976 200.209 106.184 200.209 106.6C200.209 106.984 200.401 107.176 200.785 107.176ZM200.785 102.616C201.201 102.616 201.409 102.408 201.409 101.992C201.409 101.832 201.345 101.704 201.217 101.608C201.089 101.48 200.945 101.416 200.785 101.416C200.625 101.416 200.481 101.48 200.353 101.608C200.257 101.704 200.209 101.832 200.209 101.992C200.209 102.408 200.401 102.616 200.785 102.616ZM200.785 98.2482C201.201 98.2482 201.409 98.0402 201.409 97.6242C201.409 97.4642 201.345 97.3362 201.217 97.2402C201.089 97.1122 200.945 97.0482 200.785 97.0482C200.625 97.0482 200.481 97.1122 200.353 97.2402C200.257 97.3362 200.209 97.4642 200.209 97.6242C200.209 98.0402 200.401 98.2482 200.785 98.2482ZM200.785 93.7842C201.201 93.7842 201.409 93.5762 201.409 93.1602C201.409 93.0002 201.345 92.8722 201.217 92.7762C201.089 92.6482 200.945 92.5842 200.785 92.5842C200.625 92.5842 200.481 92.6482 200.353 92.7762C200.257 92.8722 200.209 93.0002 200.209 93.1602C200.209 93.5762 200.401 93.7842 200.785 93.7842ZM200.833 89.2722C201.217 89.2722 201.409 89.0802 201.409 88.6962C201.409 88.3122 201.217 88.1202 200.833 88.1202C200.449 88.1202 200.257 88.3122 200.257 88.6962C200.257 89.0802 200.449 89.2722 200.833 89.2722ZM200.209 84.2802C200.209 84.6642 200.401 84.8562 200.785 84.8562C201.201 84.8562 201.409 84.6642 201.409 84.2802C201.409 83.8962 201.201 83.7042 200.785 83.7042C200.401 83.7042 200.209 83.8962 200.209 84.2802ZM200.833 80.4402C201.217 80.4402 201.409 80.2322 201.409 79.8162C201.409 79.4322 201.217 79.2402 200.833 79.2402C200.449 79.2402 200.257 79.4322 200.257 79.8162C200.257 80.2322 200.449 80.4402 200.833 80.4402ZM215.041 85.6722C214.881 85.6722 214.737 85.7362 214.609 85.8642C214.481 85.9602 214.417 86.0882 214.417 86.2482C214.417 86.6642 214.625 86.8722 215.041 86.8722C215.425 86.8722 215.617 86.6642 215.617 86.2482C215.617 86.0882 215.553 85.9602 215.425 85.8642C215.329 85.7362 215.201 85.6722 215.041 85.6722ZM213.937 81.6882C213.553 81.6882 213.361 81.8802 213.361 82.2642C213.361 82.6482 213.553 82.8402 213.937 82.8402C214.353 82.8402 214.561 82.6482 214.561 82.2642C214.561 81.8802 214.353 81.6882 213.937 81.6882ZM209.857 79.2402C209.473 79.2402 209.281 79.4482 209.281 79.8642C209.281 80.0242 209.329 80.1682 209.425 80.2962C209.553 80.3922 209.697 80.4402 209.857 80.4402C210.017 80.4402 210.161 80.3922 210.289 80.2962C210.417 80.1682 210.481 80.0242 210.481 79.8642C210.481 79.4482 210.273 79.2402 209.857 79.2402ZM205.105 79.2402C204.945 79.2402 204.801 79.3042 204.673 79.4322C204.577 79.5602 204.529 79.7042 204.529 79.8642C204.529 80.0242 204.577 80.1682 204.673 80.2962C204.801 80.3922 204.945 80.4402 205.105 80.4402C205.265 80.4402 205.409 80.3922 205.537 80.2962C205.665 80.1682 205.729 80.0242 205.729 79.8642C205.729 79.4482 205.521 79.2402 205.105 79.2402ZM204.721 92.1522C204.881 92.1522 205.009 92.0882 205.105 91.9602C205.233 91.8322 205.297 91.6882 205.297 91.5282C205.297 91.3682 205.233 91.2402 205.105 91.1442C205.009 91.0162 204.881 90.9522 204.721 90.9522C204.561 90.9522 204.417 91.0162 204.289 91.1442C204.161 91.2402 204.097 91.3682 204.097 91.5282C204.097 91.9442 204.305 92.1522 204.721 92.1522ZM209.137 92.2482C209.553 92.2482 209.761 92.0562 209.761 91.6722C209.761 91.2562 209.553 91.0482 209.137 91.0482C208.753 91.0482 208.561 91.2562 208.561 91.6722C208.561 92.0562 208.753 92.2482 209.137 92.2482ZM208.993 88.5522C209.761 88.5522 210.417 88.2962 210.961 87.7842C211.505 87.2402 211.777 86.5682 211.777 85.7682C211.777 85.0002 211.505 84.3442 210.961 83.8002C210.417 83.2562 209.761 82.9842 208.993 82.9842H204.145V83.0322V83.3682V88.5042V88.5522H208.993ZM212.113 95.3202C212.529 95.3202 212.737 95.1282 212.737 94.7442C212.737 94.3282 212.529 94.1202 212.113 94.1202C211.729 94.1202 211.537 94.3282 211.537 94.7442C211.537 95.1282 211.729 95.3202 212.113 95.3202ZM212.833 90.8082C212.833 91.1922 213.041 91.3842 213.457 91.3842C213.617 91.3842 213.745 91.3362 213.841 91.2402C213.969 91.1122 214.033 90.9682 214.033 90.8082C214.033 90.6482 213.969 90.5042 213.841 90.3762C213.745 90.2482 213.617 90.1842 213.457 90.1842C213.041 90.1842 212.833 90.3922 212.833 90.8082ZM213.841 98.2002C213.841 98.5842 214.049 98.7762 214.465 98.7762C214.849 98.7762 215.041 98.5842 215.041 98.2002C215.041 97.7842 214.849 97.5762 214.465 97.5762C214.049 97.5762 213.841 97.7842 213.841 98.2002ZM215.089 101.752C214.929 101.752 214.785 101.816 214.657 101.944C214.561 102.04 214.513 102.168 214.513 102.328C214.513 102.488 214.561 102.632 214.657 102.76C214.785 102.856 214.929 102.904 215.089 102.904C215.505 102.904 215.713 102.712 215.713 102.328C215.713 101.944 215.505 101.752 215.089 101.752ZM215.233 107.176C215.649 107.176 215.857 106.984 215.857 106.6C215.857 106.184 215.649 105.976 215.233 105.976C215.073 105.976 214.929 106.04 214.801 106.168C214.705 106.296 214.657 106.44 214.657 106.6C214.657 106.76 214.705 106.904 214.801 107.032C214.929 107.128 215.073 107.176 215.233 107.176ZM244.847 108.856C244.943 108.952 244.975 109.048 244.943 109.144C244.911 109.208 244.831 109.24 244.703 109.24H236.255C236.127 109.24 236.047 109.208 236.015 109.144C235.983 109.048 236.015 108.952 236.111 108.856C236.847 108.28 237.215 106.952 237.215 104.872V100.504H228.431V104.872C228.431 106.952 228.799 108.28 229.535 108.856C229.791 109.112 229.743 109.24 229.391 109.24H220.943C220.815 109.24 220.735 109.208 220.703 109.144C220.671 109.048 220.703 108.952 220.799 108.856C221.535 108.28 221.903 106.952 221.903 104.872V98.3442V94.4562C221.903 93.0802 222.031 91.7682 222.287 90.5202C222.543 89.2402 222.943 87.9602 223.487 86.6802L225.983 80.8722C226.399 78.8242 226.303 77.4802 225.695 76.8402C225.599 76.7442 225.567 76.6642 225.599 76.6002C225.631 76.5042 225.711 76.4562 225.839 76.4562H239.807C240.127 76.4562 240.191 76.5842 239.999 76.8402C239.391 77.4162 239.279 78.7602 239.663 80.8722L242.159 86.6802C242.703 87.9602 243.103 89.2402 243.359 90.5202C243.615 91.7682 243.743 93.0802 243.743 94.4562V98.3442V104.872C243.743 106.952 244.111 108.28 244.847 108.856ZM239.903 91.6242C239.519 91.6242 239.327 91.8322 239.327 92.2482C239.327 92.4082 239.375 92.5522 239.471 92.6802C239.599 92.7762 239.743 92.8242 239.903 92.8242C240.063 92.8242 240.207 92.7762 240.335 92.6802C240.463 92.5522 240.527 92.4082 240.527 92.2482C240.527 91.8322 240.319 91.6242 239.903 91.6242ZM235.871 78.5682C235.487 78.5682 235.295 78.7602 235.295 79.1442C235.295 79.5602 235.487 79.7682 235.871 79.7682C236.255 79.7682 236.447 79.5602 236.447 79.1442C236.447 78.7602 236.255 78.5682 235.871 78.5682ZM229.775 79.0002C229.359 79.0002 229.151 79.1922 229.151 79.5762C229.151 79.9922 229.359 80.2002 229.775 80.2002C230.191 80.2002 230.399 79.9922 230.399 79.5762C230.399 79.1922 230.191 79.0002 229.775 79.0002ZM225.167 106.648C225.583 106.648 225.791 106.44 225.791 106.024C225.791 105.864 225.727 105.736 225.599 105.64C225.471 105.512 225.327 105.448 225.167 105.448C225.007 105.448 224.863 105.512 224.735 105.64C224.607 105.736 224.543 105.864 224.543 106.024C224.543 106.44 224.751 106.648 225.167 106.648ZM225.311 102.088C225.727 102.088 225.935 101.88 225.935 101.464C225.935 101.304 225.871 101.176 225.743 101.08C225.647 100.952 225.503 100.888 225.311 100.888C225.151 100.888 225.007 100.952 224.879 101.08C224.783 101.176 224.735 101.304 224.735 101.464C224.735 101.88 224.927 102.088 225.311 102.088ZM225.311 97.5282C225.727 97.5282 225.935 97.3362 225.935 96.9522C225.935 96.5362 225.727 96.3282 225.311 96.3282C224.927 96.3282 224.735 96.5362 224.735 96.9522C224.735 97.3362 224.927 97.5282 225.311 97.5282ZM225.599 93.1122C225.759 93.1122 225.903 93.0642 226.031 92.9682C226.159 92.8402 226.223 92.6962 226.223 92.5362C226.223 92.1202 226.015 91.9122 225.599 91.9122C225.215 91.9122 225.023 92.1202 225.023 92.5362C225.023 92.6962 225.071 92.8402 225.167 92.9682C225.295 93.0642 225.439 93.1122 225.599 93.1122ZM226.223 88.7442C226.607 88.7442 226.799 88.5522 226.799 88.1682C226.799 87.7842 226.607 87.5922 226.223 87.5922C225.807 87.5922 225.599 87.7842 225.599 88.1682C225.599 88.5522 225.807 88.7442 226.223 88.7442ZM228.191 84.3282C228.575 84.3282 228.767 84.1362 228.767 83.7522C228.767 83.3362 228.575 83.1282 228.191 83.1282C227.775 83.1282 227.567 83.3362 227.567 83.7522C227.567 84.1362 227.775 84.3282 228.191 84.3282ZM230.207 97.5282C230.623 97.5282 230.831 97.3362 230.831 96.9522C230.831 96.5362 230.623 96.3282 230.207 96.3282C229.791 96.3282 229.583 96.5362 229.583 96.9522C229.583 97.3362 229.791 97.5282 230.207 97.5282ZM235.151 97.5762C235.311 97.5762 235.439 97.5282 235.535 97.4322C235.663 97.3042 235.727 97.1602 235.727 97.0002C235.727 96.5842 235.535 96.3762 235.151 96.3762C234.735 96.3762 234.527 96.5842 234.527 97.0002C234.527 97.1602 234.575 97.3042 234.671 97.4322C234.799 97.5282 234.959 97.5762 235.151 97.5762ZM237.215 93.9762C237.119 92.3442 236.767 90.7762 236.159 89.2722L232.847 81.5442L229.535 89.2722C228.863 90.7762 228.511 92.3442 228.479 93.9762H237.215ZM237.311 83.9442C237.695 83.9442 237.887 83.7362 237.887 83.3202C237.887 82.9042 237.695 82.6962 237.311 82.6962C236.895 82.6962 236.687 82.9042 236.687 83.3202C236.687 83.7362 236.895 83.9442 237.311 83.9442ZM238.319 87.7362C238.319 88.1522 238.527 88.3602 238.943 88.3602C239.327 88.3602 239.519 88.1522 239.519 87.7362C239.519 87.3522 239.327 87.1602 238.943 87.1602C238.527 87.1602 238.319 87.3522 238.319 87.7362ZM239.327 96.8082C239.327 97.2242 239.519 97.4322 239.903 97.4322C240.319 97.4322 240.527 97.2242 240.527 96.8082C240.527 96.4242 240.319 96.2322 239.903 96.2322C239.519 96.2322 239.327 96.4242 239.327 96.8082ZM240.239 106.504C240.399 106.504 240.527 106.456 240.623 106.36C240.751 106.232 240.815 106.088 240.815 105.928C240.815 105.768 240.751 105.624 240.623 105.496C240.527 105.368 240.399 105.304 240.239 105.304C239.823 105.304 239.615 105.512 239.615 105.928C239.615 106.312 239.823 106.504 240.239 106.504ZM240.239 101.8C240.399 101.8 240.527 101.736 240.623 101.608C240.751 101.48 240.815 101.336 240.815 101.176C240.815 101.016 240.751 100.888 240.623 100.792C240.527 100.664 240.399 100.6 240.239 100.6C240.079 100.6 239.935 100.664 239.807 100.792C239.679 100.888 239.615 101.016 239.615 101.176C239.615 101.592 239.823 101.8 240.239 101.8ZM269.378 108.856C269.474 108.92 269.506 109 269.474 109.096C269.442 109.192 269.362 109.24 269.234 109.24H260.786C260.658 109.24 260.578 109.192 260.546 109.096C260.514 109 260.546 108.92 260.642 108.856C261.378 108.248 261.746 106.92 261.746 104.872V102.664V101.56C261.746 100.664 261.57 99.8162 261.218 99.0162C260.898 98.2162 260.434 97.5282 259.826 96.9522C259.218 96.3442 258.514 95.8802 257.714 95.5602C256.914 95.2082 256.066 95.0322 255.17 95.0322H254.114V98.2962V102.664V104.872C254.114 106.92 254.466 108.248 255.17 108.856C255.266 108.92 255.298 109 255.266 109.096C255.266 109.192 255.186 109.24 255.026 109.24H254.114H251.906H246.578C246.45 109.24 246.37 109.192 246.338 109.096C246.306 109 246.354 108.92 246.482 108.856C247.186 108.216 247.538 106.888 247.538 104.872V80.8242C247.538 78.7762 247.186 77.4482 246.482 76.8402C246.354 76.7442 246.306 76.6482 246.338 76.5522C246.37 76.4562 246.45 76.4082 246.578 76.4082H251.906H258.962C260.242 76.4082 261.442 76.6642 262.562 77.1762C263.714 77.6562 264.706 78.3282 265.538 79.1922C266.402 80.0242 267.074 81.0162 267.554 82.1682C268.066 83.2882 268.322 84.4882 268.322 85.7682C268.322 87.1442 268.034 88.4562 267.458 89.7042C266.882 90.9522 266.066 92.0082 265.01 92.8722C266.162 94.2162 266.994 95.5762 267.506 96.9522C268.05 98.2962 268.322 99.8322 268.322 101.56V102.664V104.872C268.322 106.92 268.674 108.248 269.378 108.856ZM250.754 107.176C251.17 107.176 251.378 106.984 251.378 106.6C251.378 106.184 251.17 105.976 250.754 105.976C250.37 105.976 250.178 106.184 250.178 106.6C250.178 106.984 250.37 107.176 250.754 107.176ZM250.754 102.616C251.17 102.616 251.378 102.408 251.378 101.992C251.378 101.832 251.314 101.704 251.186 101.608C251.058 101.48 250.914 101.416 250.754 101.416C250.594 101.416 250.45 101.48 250.322 101.608C250.226 101.704 250.178 101.832 250.178 101.992C250.178 102.408 250.37 102.616 250.754 102.616ZM250.754 98.2482C251.17 98.2482 251.378 98.0402 251.378 97.6242C251.378 97.4642 251.314 97.3362 251.186 97.2402C251.058 97.1122 250.914 97.0482 250.754 97.0482C250.594 97.0482 250.45 97.1122 250.322 97.2402C250.226 97.3362 250.178 97.4642 250.178 97.6242C250.178 98.0402 250.37 98.2482 250.754 98.2482ZM250.754 93.7842C251.17 93.7842 251.378 93.5762 251.378 93.1602C251.378 93.0002 251.314 92.8722 251.186 92.7762C251.058 92.6482 250.914 92.5842 250.754 92.5842C250.594 92.5842 250.45 92.6482 250.322 92.7762C250.226 92.8722 250.178 93.0002 250.178 93.1602C250.178 93.5762 250.37 93.7842 250.754 93.7842ZM250.802 89.2722C251.186 89.2722 251.378 89.0802 251.378 88.6962C251.378 88.3122 251.186 88.1202 250.802 88.1202C250.418 88.1202 250.226 88.3122 250.226 88.6962C250.226 89.0802 250.418 89.2722 250.802 89.2722ZM250.178 84.2802C250.178 84.6642 250.37 84.8562 250.754 84.8562C251.17 84.8562 251.378 84.6642 251.378 84.2802C251.378 83.8962 251.17 83.7042 250.754 83.7042C250.37 83.7042 250.178 83.8962 250.178 84.2802ZM250.802 80.4402C251.186 80.4402 251.378 80.2322 251.378 79.8162C251.378 79.4322 251.186 79.2402 250.802 79.2402C250.418 79.2402 250.226 79.4322 250.226 79.8162C250.226 80.2322 250.418 80.4402 250.802 80.4402ZM265.01 85.6722C264.85 85.6722 264.706 85.7362 264.578 85.8642C264.45 85.9602 264.386 86.0882 264.386 86.2482C264.386 86.6642 264.594 86.8722 265.01 86.8722C265.394 86.8722 265.586 86.6642 265.586 86.2482C265.586 86.0882 265.522 85.9602 265.394 85.8642C265.298 85.7362 265.17 85.6722 265.01 85.6722ZM263.906 81.6882C263.522 81.6882 263.33 81.8802 263.33 82.2642C263.33 82.6482 263.522 82.8402 263.906 82.8402C264.322 82.8402 264.53 82.6482 264.53 82.2642C264.53 81.8802 264.322 81.6882 263.906 81.6882ZM259.826 79.2402C259.442 79.2402 259.25 79.4482 259.25 79.8642C259.25 80.0242 259.298 80.1682 259.394 80.2962C259.522 80.3922 259.666 80.4402 259.826 80.4402C259.986 80.4402 260.13 80.3922 260.258 80.2962C260.386 80.1682 260.45 80.0242 260.45 79.8642C260.45 79.4482 260.242 79.2402 259.826 79.2402ZM255.074 79.2402C254.914 79.2402 254.77 79.3042 254.642 79.4322C254.546 79.5602 254.498 79.7042 254.498 79.8642C254.498 80.0242 254.546 80.1682 254.642 80.2962C254.77 80.3922 254.914 80.4402 255.074 80.4402C255.234 80.4402 255.378 80.3922 255.506 80.2962C255.634 80.1682 255.698 80.0242 255.698 79.8642C255.698 79.4482 255.49 79.2402 255.074 79.2402ZM254.69 92.1522C254.85 92.1522 254.978 92.0882 255.074 91.9602C255.202 91.8322 255.266 91.6882 255.266 91.5282C255.266 91.3682 255.202 91.2402 255.074 91.1442C254.978 91.0162 254.85 90.9522 254.69 90.9522C254.53 90.9522 254.386 91.0162 254.258 91.1442C254.13 91.2402 254.066 91.3682 254.066 91.5282C254.066 91.9442 254.274 92.1522 254.69 92.1522ZM259.106 92.2482C259.522 92.2482 259.73 92.0562 259.73 91.6722C259.73 91.2562 259.522 91.0482 259.106 91.0482C258.722 91.0482 258.53 91.2562 258.53 91.6722C258.53 92.0562 258.722 92.2482 259.106 92.2482ZM258.962 88.5522C259.73 88.5522 260.386 88.2962 260.93 87.7842C261.474 87.2402 261.746 86.5682 261.746 85.7682C261.746 85.0002 261.474 84.3442 260.93 83.8002C260.386 83.2562 259.73 82.9842 258.962 82.9842H254.114V83.0322V83.3682V88.5042V88.5522H258.962ZM262.082 95.3202C262.498 95.3202 262.706 95.1282 262.706 94.7442C262.706 94.3282 262.498 94.1202 262.082 94.1202C261.698 94.1202 261.506 94.3282 261.506 94.7442C261.506 95.1282 261.698 95.3202 262.082 95.3202ZM262.802 90.8082C262.802 91.1922 263.01 91.3842 263.426 91.3842C263.586 91.3842 263.714 91.3362 263.81 91.2402C263.938 91.1122 264.002 90.9682 264.002 90.8082C264.002 90.6482 263.938 90.5042 263.81 90.3762C263.714 90.2482 263.586 90.1842 263.426 90.1842C263.01 90.1842 262.802 90.3922 262.802 90.8082ZM263.81 98.2002C263.81 98.5842 264.018 98.7762 264.434 98.7762C264.818 98.7762 265.01 98.5842 265.01 98.2002C265.01 97.7842 264.818 97.5762 264.434 97.5762C264.018 97.5762 263.81 97.7842 263.81 98.2002ZM265.058 101.752C264.898 101.752 264.754 101.816 264.626 101.944C264.53 102.04 264.482 102.168 264.482 102.328C264.482 102.488 264.53 102.632 264.626 102.76C264.754 102.856 264.898 102.904 265.058 102.904C265.474 102.904 265.682 102.712 265.682 102.328C265.682 101.944 265.474 101.752 265.058 101.752ZM265.202 107.176C265.618 107.176 265.826 106.984 265.826 106.6C265.826 106.184 265.618 105.976 265.202 105.976C265.042 105.976 264.898 106.04 264.77 106.168C264.674 106.296 264.626 106.44 264.626 106.6C264.626 106.76 264.674 106.904 264.77 107.032C264.898 107.128 265.042 107.176 265.202 107.176ZM294 104.872C294 106.952 294.352 108.296 295.056 108.904C295.152 108.968 295.184 109.048 295.152 109.144C295.152 109.208 295.072 109.24 294.912 109.24H271.2C271.04 109.24 270.944 109.208 270.912 109.144C270.912 109.048 270.96 108.968 271.056 108.904C271.76 108.296 272.112 106.952 272.112 104.872V102.712V80.8242C272.112 77.9122 271.392 76.4562 269.952 76.4562H294.912C295.072 76.4562 295.152 76.5042 295.152 76.6002C295.184 76.6962 295.152 76.7762 295.056 76.8402C294.352 77.4482 294 78.7762 294 80.8242V83.0322V83.9922C294 84.1202 293.952 84.2002 293.856 84.2322C293.76 84.2642 293.68 84.2162 293.616 84.0882C293.008 83.3842 291.68 83.0322 289.632 83.0322H278.688V85.1922V89.5602H285.264C287.312 89.5602 288.64 89.2082 289.248 88.5042C289.312 88.4082 289.392 88.3762 289.488 88.4082C289.584 88.4402 289.632 88.5202 289.632 88.6482V89.5602V91.7682V96.1362V97.0962C289.632 97.2242 289.584 97.3042 289.488 97.3362C289.392 97.3682 289.312 97.3362 289.248 97.2402C288.608 96.5042 287.28 96.1362 285.264 96.1362H278.688V98.2962V102.712H289.632C291.648 102.712 292.976 102.344 293.616 101.608C293.68 101.512 293.76 101.48 293.856 101.512C293.952 101.544 294 101.624 294 101.752V102.712V104.872ZM287.232 92.3922C286.848 92.3922 286.656 92.6002 286.656 93.0162C286.656 93.4002 286.848 93.5922 287.232 93.5922C287.648 93.5922 287.856 93.4002 287.856 93.0162C287.856 92.6002 287.648 92.3922 287.232 92.3922ZM291.408 79.0482C291.248 79.0482 291.104 79.1122 290.976 79.2402C290.88 79.3362 290.832 79.4642 290.832 79.6242C290.832 79.7842 290.88 79.9282 290.976 80.0562C291.104 80.1842 291.248 80.2482 291.408 80.2482C291.824 80.2482 292.032 80.0402 292.032 79.6242C292.032 79.2402 291.824 79.0482 291.408 79.0482ZM287.52 79.0482C287.104 79.0482 286.896 79.2402 286.896 79.6242C286.896 80.0402 287.104 80.2482 287.52 80.2482C287.68 80.2482 287.808 80.1842 287.904 80.0562C288.032 79.9282 288.096 79.7842 288.096 79.6242C288.096 79.4642 288.032 79.3362 287.904 79.2402C287.808 79.1122 287.68 79.0482 287.52 79.0482ZM283.488 79.0482C283.072 79.0482 282.864 79.2402 282.864 79.6242C282.864 80.0402 283.072 80.2482 283.488 80.2482C283.648 80.2482 283.776 80.1842 283.872 80.0562C284 79.9282 284.064 79.7842 284.064 79.6242C284.064 79.4642 284 79.3362 283.872 79.2402C283.776 79.1122 283.648 79.0482 283.488 79.0482ZM279.36 79.0482C278.976 79.0482 278.784 79.2402 278.784 79.6242C278.784 80.0402 278.976 80.2482 279.36 80.2482C279.744 80.2482 279.936 80.0402 279.936 79.6242C279.936 79.2402 279.744 79.0482 279.36 79.0482ZM283.2 92.3922C282.816 92.3922 282.624 92.6002 282.624 93.0162C282.624 93.4002 282.816 93.5922 283.2 93.5922C283.616 93.5922 283.824 93.4002 283.824 93.0162C283.824 92.6002 283.616 92.3922 283.2 92.3922ZM279.264 92.3922C278.848 92.3922 278.64 92.6002 278.64 93.0162C278.64 93.4002 278.848 93.5922 279.264 93.5922C279.424 93.5922 279.552 93.5442 279.648 93.4482C279.776 93.3202 279.84 93.1762 279.84 93.0162C279.84 92.8562 279.776 92.7122 279.648 92.5842C279.552 92.4562 279.424 92.3922 279.264 92.3922ZM275.184 106.984C275.6 106.984 275.808 106.792 275.808 106.408C275.808 105.992 275.6 105.784 275.184 105.784C274.8 105.784 274.608 105.992 274.608 106.408C274.608 106.792 274.8 106.984 275.184 106.984ZM275.184 102.424C275.6 102.424 275.808 102.232 275.808 101.848C275.808 101.432 275.6 101.224 275.184 101.224C274.8 101.224 274.608 101.432 274.608 101.848C274.608 102.232 274.8 102.424 275.184 102.424ZM275.184 98.0562C275.6 98.0562 275.808 97.8482 275.808 97.4322C275.808 97.0482 275.6 96.8562 275.184 96.8562C274.8 96.8562 274.608 97.0482 274.608 97.4322C274.608 97.8482 274.8 98.0562 275.184 98.0562ZM275.184 93.5922C275.6 93.5922 275.808 93.4002 275.808 93.0162C275.808 92.6002 275.6 92.3922 275.184 92.3922C274.8 92.3922 274.608 92.6002 274.608 93.0162C274.608 93.4002 274.8 93.5922 275.184 93.5922ZM275.232 89.1282C275.648 89.1282 275.856 88.9202 275.856 88.5042C275.856 88.1202 275.648 87.9282 275.232 87.9282C274.816 87.9282 274.608 88.1202 274.608 88.5042C274.608 88.9202 274.816 89.1282 275.232 89.1282ZM274.608 84.0882C274.608 84.4722 274.8 84.6642 275.184 84.6642C275.6 84.6642 275.808 84.4722 275.808 84.0882C275.808 83.6722 275.6 83.4642 275.184 83.4642C274.8 83.4642 274.608 83.6722 274.608 84.0882ZM275.232 80.2482C275.648 80.2482 275.856 80.0402 275.856 79.6242C275.856 79.2402 275.648 79.0482 275.232 79.0482C274.816 79.0482 274.608 79.2402 274.608 79.6242C274.608 80.0402 274.816 80.2482 275.232 80.2482ZM279.216 106.984C279.632 106.984 279.84 106.792 279.84 106.408C279.84 105.992 279.632 105.784 279.216 105.784C278.832 105.784 278.64 105.992 278.64 106.408C278.64 106.792 278.832 106.984 279.216 106.984ZM283.2 106.984C283.36 106.984 283.488 106.936 283.584 106.84C283.712 106.712 283.776 106.568 283.776 106.408C283.776 106.248 283.712 106.104 283.584 105.976C283.488 105.848 283.36 105.784 283.2 105.784C282.784 105.784 282.576 105.992 282.576 106.408C282.576 106.792 282.784 106.984 283.2 106.984ZM287.232 106.984C287.616 106.984 287.808 106.792 287.808 106.408C287.808 105.992 287.616 105.784 287.232 105.784C286.816 105.784 286.608 105.992 286.608 106.408C286.608 106.792 286.816 106.984 287.232 106.984ZM291.456 106.984C291.616 106.984 291.744 106.936 291.84 106.84C291.968 106.712 292.032 106.568 292.032 106.408C292.032 106.248 291.968 106.104 291.84 105.976C291.744 105.848 291.616 105.784 291.456 105.784C291.04 105.784 290.832 105.992 290.832 106.408C290.832 106.792 291.04 106.984 291.456 106.984Z" fill="#A900D3"/>
<path d="M59 118H300" stroke="#E4F800" stroke-width="2"/>
</svg>
